<?xml version="1.0" encoding="utf-8"?>
<!-- Generator: Adobe Illustrator 24.0.2, SVG Export Plug-In . SVG Version: 6.00 Build 0)  -->
<svg version="1.1" id="Layer_1" xmlns="http://www.w3.org/2000/svg" xmlns:xlink="http://www.w3.org/1999/xlink" x="0px" y="0px"
	 viewBox="0 0 105 105" style="enable-background:new 0 0 105 105;" xml:space="preserve">
<style type="text/css">
	.st0{fill:#89980F;}
	.st1{fill:#F2F4E6;}
</style>
<path class="st0" d="M-123.08,52.58"/>
<path class="st0" d="M-123.08,53.58"/>
<g>
	<path class="st0" d="M52.5,105c28.99,0,52.5-23.51,52.5-52.5C105,23.51,81.49,0,52.5,0C23.51,0,0,23.51,0,52.5
		C0,81.49,23.51,105,52.5,105"/>
</g>
<g>
	<path class="st1" d="M49.76,41.17c0.39,0.22,0.58,0.58,0.58,1.08v30.33c0,0.45-0.21,0.79-0.63,1.04c-0.42,0.25-0.85,0.26-1.29,0.04
		c-2.56-1.28-5.81-2.25-9.75-2.91c-2.67-0.5-5.5-0.83-8.5-1c-0.72,0-1.32-0.25-1.79-0.75c-0.47-0.5-0.71-1.08-0.71-1.75V39.09
		c0-0.78,0.28-1.42,0.83-1.92c0.55-0.5,1.22-0.72,2-0.67c3.28,0.17,6.36,0.56,9.25,1.17C43.93,38.5,47.26,39.67,49.76,41.17
		 M72.84,36.5c0.78-0.06,1.44,0.17,2,0.67c0.55,0.5,0.83,1.14,0.83,1.92v28.16c0,0.67-0.24,1.25-0.71,1.75
		c-0.47,0.5-1.07,0.75-1.79,0.75c-3,0.17-5.83,0.5-8.5,1c-3.94,0.67-7.19,1.64-9.75,2.91c-0.44,0.22-0.87,0.21-1.29-0.04
		c-0.42-0.25-0.63-0.6-0.63-1.04V42.25c0-0.5,0.19-0.86,0.58-1.08c2.5-1.5,5.83-2.67,10-3.5C66.48,37.06,69.57,36.67,72.84,36.5"/>
</g>
</svg>
