<?xml version="1.0" encoding="utf-8"?>
<!-- Generator: Adobe Illustrator 24.0.2, SVG Export Plug-In . SVG Version: 6.00 Build 0)  -->
<svg version="1.1" id="Layer_1" xmlns="http://www.w3.org/2000/svg" xmlns:xlink="http://www.w3.org/1999/xlink" x="0px" y="0px"
	 viewBox="0 0 39.82 35.46" style="enable-background:new 0 0 39.82 35.46;" xml:space="preserve">
<style type="text/css">
	.st0{fill:#0066CB;}
</style>
<g>
	<path class="st0" d="M3.71,17.05l4.87-3.76c0.23-0.18,0.5-0.31,0.77-0.39l2.74-8.31H6.82C6.31,4.6,5.9,4.18,5.9,3.67
		C5.9,1.64,7.54,0,9.56,0h26.58c2.03,0,3.67,1.64,3.67,3.67c0,0.51-0.42,0.93-0.93,0.93h-5.45v8.27h0.5c1.36,0,2.46,1.1,2.46,2.46
		v2.02h1.14c1.25,0,2.26,1.02,2.26,2.26v9.02c0,1.25-1.02,2.27-2.26,2.27h-0.02c0-4-3.25-7.24-7.25-7.24c-4,0-7.25,3.24-7.25,7.24
		h-7.03c0-4-3.24-7.24-7.25-7.24c-3.96,0-7.18,3.17-7.25,7.12C0.63,30.46,0,29.62,0,28.64v-4.53C0,21.36,1.28,18.92,3.71,17.05
		 M17,23.75c0.13,0.26,0.4,0.42,0.69,0.42h3.41c0.43,0,0.78-0.35,0.78-0.78v-3.78c0-1.25,1.02-2.26,2.27-2.26h3.99v-2.02
		c0-1.35,1.11-2.46,2.46-2.46h0.5V4.6H14.55l-2.95,8.93c0.16,0.16,0.29,0.35,0.39,0.56L17,23.75z"/>
</g>
<g>
	<path class="st0" d="M30.28,26.34c2.52,0,4.57,2.04,4.57,4.56c0,2.52-2.04,4.56-4.57,4.56c-2.52,0-4.56-2.04-4.56-4.56
		C25.72,28.38,27.76,26.34,30.28,26.34 M29.12,31.42c0,0.64,0.52,1.16,1.17,1.16c0.65,0,1.17-0.52,1.17-1.16v-1.03
		c0-0.64-0.52-1.16-1.17-1.16c-0.64,0-1.17,0.52-1.17,1.16V31.42z"/>
</g>
<g>
	<path class="st0" d="M8.76,26.34c2.52,0,4.56,2.04,4.56,4.56c0,2.52-2.04,4.56-4.56,4.56s-4.57-2.04-4.57-4.56
		C4.19,28.38,6.24,26.34,8.76,26.34 M7.59,31.42c0,0.64,0.52,1.16,1.17,1.16c0.64,0,1.17-0.52,1.17-1.16v-1.03
		c0-0.64-0.52-1.16-1.17-1.16c-0.65,0-1.17,0.52-1.17,1.16V31.42z"/>
</g>
</svg>
