<?xml version="1.0" encoding="utf-8"?>
<!-- Generator: Adobe Illustrator 24.0.2, SVG Export Plug-In . SVG Version: 6.00 Build 0)  -->
<svg version="1.1" id="Layer_1" xmlns="http://www.w3.org/2000/svg" xmlns:xlink="http://www.w3.org/1999/xlink" x="0px" y="0px"
	 viewBox="0 0 105 105" style="enable-background:new 0 0 105 105;" xml:space="preserve">
<style type="text/css">
	.st0{fill:#89980F;}
	.st1{fill:#F2F4E6;}
</style>
<g>
	<path class="st0" d="M52.5,105c28.99,0,52.5-23.5,52.5-52.5C105,23.51,81.49,0,52.5,0C23.5,0,0,23.51,0,52.5
		C0,81.5,23.5,105,52.5,105"/>
</g>
<g>
	<path class="st1" d="M44.85,70.41c0.39,0.44,0.89,0.67,1.5,0.67s1.11-0.22,1.5-0.67l24.58-24.49c0.39-0.39,0.58-0.89,0.58-1.5
		c0-0.61-0.19-1.11-0.58-1.5l-3.08-3c-0.39-0.44-0.88-0.67-1.46-0.67c-0.58,0-1.1,0.22-1.54,0.67l-20,20l-9.33-9.33
		c-0.44-0.45-0.96-0.67-1.54-0.67c-0.58,0-1.07,0.22-1.46,0.67l-3.08,3c-0.39,0.39-0.58,0.89-0.58,1.5c0,0.61,0.2,1.11,0.58,1.5
		L44.85,70.41z"/>
</g>
</svg>
