<?xml version="1.0" encoding="utf-8"?>
<!-- Generator: Adobe Illustrator 23.1.0, SVG Export Plug-In . SVG Version: 6.00 Build 0)  -->
<svg version="1.1" id="Layer_1" xmlns="http://www.w3.org/2000/svg" xmlns:xlink="http://www.w3.org/1999/xlink" x="0px" y="0px"
	 viewBox="0 0 216.73 76.08" style="enable-background:new 0 0 216.73 76.08;" xml:space="preserve">
<style type="text/css">
	.st0{clip-path:url(#SVGID_2_);fill:#0066CC;}
</style>
<g>
	<defs>
		<rect id="SVGID_1_" x="-254.48" y="-3372.86" width="1440" height="4721"/>
	</defs>
	<clipPath id="SVGID_2_">
		<use xlink:href="#SVGID_1_"  style="overflow:visible;"/>
	</clipPath>
	<path class="st0" d="M172.71,43.25l0.21,4.1c0,3.51-4.02,6.15-8.14,6.17c-2.36,0.01-4.49-1.87-4.49-3.37
		c0-3.32,3.19-5.16,5.35-5.46C171.1,43.99,172,43.79,172.71,43.25 M212.02,16.15v43.78c0,6.57-5.34,11.92-11.92,11.92H16.74
		c-6.57,0-11.91-5.35-11.91-11.92V16.15c0-6.57,5.35-11.92,11.91-11.92H200.1C206.68,4.24,212.02,9.58,212.02,16.15 M58.57,43.44
		h-6.1c-3.06,7.29-6.93,8.54-10.09,8.54c-6.65,0-11.17-5.7-11.17-14.18c0-6.78,4.27-13.94,10.79-13.94c3.47,0,7.15,1.26,9.79,6.66
		h5.9c-0.7-6.03-7.28-11.55-14.87-11.59c-10.49-0.06-17.26,7.77-17.26,18.87c0,13.85,8.48,19.08,16.66,19.08
		C44.93,56.89,55.05,56.26,58.57,43.44 M64.65,20.06h-4.61v36.36h4.61V20.06z M88.36,30.2h-4.9v14.46c0,3.81-1.61,7.69-6.75,7.69
		c-2.86,0-5.06-0.41-5.06-4.73V30.2h-4.98v18.87c0,6.27,5.42,7.79,9.29,7.79c1.25,0,5.92,0.13,7.78-2.93l-0.03,2.53h4.65V30.2z
		 M115.29,42.43c0-7.38-4.73-13.67-11.93-13.67c-3.15,0.05-5.36,0.5-7.81,2.94l-0.1,0.69V20.41h-4.89v36.04h4.63l-0.02-2.61
		c0.93,1.46,2.96,3.36,7.56,3.36C111.96,57.21,115.29,48.71,115.29,42.43 M155.2,43.43h-6.1c-3.07,7.28-6.93,8.54-10.09,8.54
		c-6.65,0-11.17-5.7-11.17-14.18c0-6.78,4.27-13.93,10.8-13.93c3.47,0,7.16,1.25,9.79,6.65h5.9c-0.7-6.02-7.28-11.54-14.87-11.59
		c-10.49-0.05-17.25,7.77-17.25,18.87c0,13.85,8.47,19.08,16.65,19.08C141.56,56.87,151.68,56.23,155.2,43.43 M177.33,36.76
		c0-6.73-7.63-7.33-9.73-7.33c-6.48,0-11.45,2.15-11.75,9.17h4.69c0.31-2,0.63-5.02,5.65-5.02c4.17,0,5.96,0.89,6.82,3.78
		c0.45,1.49-1.25,3-2.31,3.11l-7.28,0.9c-7.33,0.91-8.53,6.31-8.53,8.52c0,4.52,3.97,7.29,8.79,7.29c5.11,0,6.95-1.67,8.65-3.52
		l0.38,2.76h4.62V36.76z M191.78,29.58c-0.35-0.11-0.03-0.15-0.58-0.15c-3.31,0-5,1.14-6.69,2.64l-0.79,1.38v-3.27h-4.16v26.25h4.42
		V41.17c0-3.81,3.8-7.09,6.72-7.03h1.09V29.58z M216.11,15.53v45.03c0,8.57-6.97,15.53-15.53,15.53H16.26
		c-8.56,0-15.54-6.96-15.54-15.53V15.53C0.73,6.96,7.7,0,16.26,0h184.32C209.14,0,216.11,6.96,216.11,15.53 M213.96,15.53
		c0-7.38-6-13.39-13.38-13.39H16.27c-7.38,0-13.38,6.01-13.38,13.39v45.02c0,7.38,6,13.39,13.38,13.39h184.31
		c7.38,0,13.38-6,13.38-13.39V15.53z M102.54,33.41c-6.57,0.02-7.36,6.88-7.29,11.15c0.09,5.28,4.59,7.66,7.49,7.66
		c3.51,0,7.19-3.19,7.19-8.96C109.94,39.89,108.51,33.4,102.54,33.41"/>
</g>
</svg>
