<?xml version="1.0" encoding="utf-8"?>
<!-- Generator: Adobe Illustrator 24.0.2, SVG Export Plug-In . SVG Version: 6.00 Build 0)  -->
<svg version="1.1" id="Layer_1" xmlns="http://www.w3.org/2000/svg" xmlns:xlink="http://www.w3.org/1999/xlink" x="0px" y="0px"
	 viewBox="0 0 105 105" style="enable-background:new 0 0 105 105;" xml:space="preserve">
<style type="text/css">
	.st0{fill:#89980F;}
	.st1{fill:#F2F4E6;}
</style>
<g>
	<path class="st0" d="M52.5,105c28.99,0,52.5-23.5,52.5-52.5C105,23.51,81.49,0,52.5,0C23.5,0,0,23.51,0,52.5
		C0,81.5,23.5,105,52.5,105"/>
</g>
<g>
	<path class="st1" d="M80.12,44.77c0.16-0.33,0.49-7.56-2.3-12.49c-2.79-4.93-7.23-7.07-10.36-8.22
		c-3.12-1.15-11.18-2.79-16.27-2.63c-5.1,0.16-13.48,2.63-16.93,4.93c-3.45,2.3-9.86,7.07-13.64,8.71c-3.78,1.64-8.79,4.19-6.94,9
		c0,0-0.12-2.92,4.97-5.71c5.1-2.8,8.88-2.8,18.58,1.48c9.7,4.27,14.96,6.25,24.16,6.74c0,0,0.89,0.09,2.1,0.49
		c-10.66,0.65-17.56-2.31-21.5-3.95c-3.95-1.64-11.51-6.41-17.75-5.92c-6.25,0.49-9.53,5.59-9.53,5.59s-1.81,3.45,0.82,5.26
		c2.63,1.81,7.56-0.16,7.56-0.16c-0.49-7.89,3.95-8.88,5.26-8.88c1.32,0,5.1,1.15,10.19,4.27c5.09,3.12,12.49,4.27,17.26,4.6
		c4.56,0.31,7.47-0.73,7.71-0.81c1.64,0.55,3.86,1.67,5.28,3.94c0,0,4.44,1.48,8.71,6.25l3.12-8.38
		C80.61,48.88,79.95,45.1,80.12,44.77"/>
</g>
<g>
	<path class="st1" d="M18.26,73.19c-0.99,0-1.72-0.35-1.72-1.16c0-0.7,0.58-1.34,1.69-1.34c0.81,0,1.63,0.38,2.88,1.34
		C20.27,72.75,19.34,73.19,18.26,73.19 M31.74,51.39c-7.6,0-11.7,5.09-11.7,10.27c0,2.91,1.34,4.86,1.34,4.86l3.09-2.3
		c0,0-0.67-1.28-0.67-2.68c0-2.79,2.56-6.57,7.65-6.57c4.63,0,6.49,3.11,6.49,7.04c0,5.21-3.2,11.58-7.68,11.58
		c-1.43,0-2.62-0.64-3.75-1.48c0.7-1.08,1.31-2.24,1.74-3.41c0-0.03,2.88-7.1,2.88-7.1c0.85-2.1,2.36-2.74,2.36-2.74l-0.84-2.47
		c-2.91,0-4.95,2.21-5.76,4.22l-2.79,6.9c-0.29,0.7-0.61,1.4-0.99,2.04c-1.98-1.34-3.46-1.86-5.04-1.86c-3.58,0-4.98,2.62-4.98,4.6
		c0,1.89,1.28,4.51,5.44,4.51c2.36,0,4.28-0.84,5.76-2.13c1.89,1.6,3.43,2.68,6.2,2.68c8,0,12.05-8.7,12.05-15.28
		C42.53,55.82,38.9,51.39,31.74,51.39"/>
</g>
<g>
	<path class="st1" d="M50.65,70.31c0,0-1.34,2.09-2.94,2.09c-0.58,0-0.93-0.32-0.93-1.08c0-1.86,2.15-7.3,4.45-7.3
		c1.28,0,1.31,1.63,1.31,1.63L50.65,70.31z M83.74,63.94c0.99,0,0.82,0.79,0.44,1.66c-0.58,1.37-1.46,2.59-4.13,2.13
		C80.04,67.72,81.59,63.94,83.74,63.94 M90.29,67.63c-2.07,3.67-5.21,5.62-8.18,5.62c-3.7,0-2.85-3.03-2.85-3.03
		c5.38,0.7,7.71-0.99,8.94-3.64c1.86-4.19-0.93-6.34-4.22-6.34c-4.74,0-7.58,3.96-8.66,7.57c-1.8,2.96-3.56,3.48-5.13,2.82
		c3.43-4.16,4.45-8.26,4.8-10.39l-3.7,0.38c-1.28,5.7-4.39,9.29-7.25,11.41l2.5-11.41H62l-1.59,7.24c-2.04,3.44-3.96,5.39-5.1,5.39
		c-0.52,0-1.02-0.44,0.29-3.72l3.61-8.91h-4.63l-0.82,1.98c0,0-0.64-2.36-3.46-2.36c-5.56,0-8.03,8.93-8.03,12.05
		c0,2.1,1.11,3.81,3.29,3.81c2.56,0,4.57-2.42,4.57-2.42s0.38,2.42,3.4,2.42c2.18,0,4.09-1.27,5.76-3.16l-0.61,2.78h4.54
		c4.19-2.09,5.18-3.2,5.18-3.2c2.52,1.12,4.69,0.59,6.43-0.92c0.26,2.79,2.2,4.51,5.97,4.51c5.59,0,9.14-3.81,11.12-7.3
		C91.68,68.24,90.9,67.69,90.29,67.63"/>
</g>
</svg>
