<svg width="53" height="55" xmlns="http://www.w3.org/2000/svg">
  <g fill="none" fill-rule="evenodd">
    <path d="M1.339 3.033C6.759 1.618 10.793.694 13.463.26c1.796-.292 3.252-.04 4.95.695.287.124.57.256.957.442l.462.224c.183.089.323.156.46.22 2.037.961 3.635 1.389 6.022 1.394 2.407.005 4.183-.426 6.619-1.406.218-.088 1.2-.492 1.465-.598.58-.232 1.047-.404 1.51-.55 1.53-.48 2.903-.622 4.395-.36 2.479.433 6.143 1.34 11.016 2.72l1.149.327.007 1.194c.063 10.139-1.884 19.16-5.849 27.045-3.958 7.87-10.221 15.193-18.772 21.971l-.964.764-.981-.74c-9.054-6.826-15.648-14.146-19.764-21.97C2.02 23.79.024 14.755.15 4.553L.165 3.34l1.174-.307z" fill="#090637" fill-rule="nonzero"/>
    <path d="M8.96 30.152c3.733 7.097 9.688 13.82 17.881 20.16 7.712-6.284 13.354-12.997 16.944-20.134 3.576-7.11 5.414-15.238 5.508-24.402-4.2-1.17-7.384-1.946-9.538-2.323-.947-.165-1.818-.076-2.893.262-.373.118-.771.264-1.282.469-.248.099-1.225.5-1.46.595-2.783 1.12-4.935 1.642-7.813 1.636-2.903-.006-4.943-.552-7.371-1.697-.149-.07-.298-.141-.489-.234l-.458-.222c-.351-.169-.6-.285-.839-.388-1.179-.51-2.04-.66-3.177-.475-2.356.384-5.91 1.186-10.647 2.405.045 9.19 1.926 17.3 5.634 24.348z" fill="#FFF" fill-rule="nonzero"/>
    <path d="M37.83 31.804h-7.17s-4.308-5.104-4.54-5.41c-1.068 1.418-4.312 5.41-4.312 5.41h-7.062l7.85-9.468-7.49-8.733h7.13l15.593 18.201z" fill="#090637"/>
    <path fill="#27AEE4" d="M27.2 17.26l2.854-3.665h6.937l-6.31 7.739z"/>
  </g>
</svg>
