<?xml version="1.0" encoding="utf-8"?>
<!-- Generator: Adobe Illustrator 23.1.0, SVG Export Plug-In . SVG Version: 6.00 Build 0)  -->
<svg version="1.1" id="Layer_1" xmlns="http://www.w3.org/2000/svg" xmlns:xlink="http://www.w3.org/1999/xlink" x="0px" y="0px"
	 viewBox="0 0 50.79 13.83" style="enable-background:new 0 0 50.79 13.83;" xml:space="preserve">
<style type="text/css">
	.st0{clip-path:url(#SVGID_2_);fill-rule:evenodd;clip-rule:evenodd;fill:#CBCBCB;}
</style>
<g>
	<defs>
		<rect id="SVGID_1_" x="-447.52" y="-2860.17" width="1440" height="4721"/>
	</defs>
	<clipPath id="SVGID_2_">
		<use xlink:href="#SVGID_1_"  style="overflow:visible;"/>
	</clipPath>
	<path class="st0" d="M50.58,0.45c0.29,0.29,0.45,0.67,0.45,1.08v10.78c0,0.41-0.16,0.79-0.45,1.08c-0.29,0.29-0.67,0.45-1.08,0.45
		H1.52c-0.41,0-0.79-0.16-1.08-0.45C0.16,13.1,0,12.71,0,12.31V1.52C0,0.68,0.68,0,1.52,0H49.5C49.91,0,50.29,0.16,50.58,0.45
		 M50.79,12.31V1.52c0-0.34-0.13-0.67-0.38-0.91c-0.24-0.24-0.57-0.38-0.91-0.38H1.52c-0.34,0-0.67,0.13-0.91,0.38
		C0.37,0.86,0.23,1.18,0.23,1.52v10.78c0,0.34,0.13,0.67,0.38,0.91c0.24,0.24,0.57,0.38,0.91,0.38H49.5
		C50.21,13.6,50.79,13.02,50.79,12.31 M49.04,1.68H1.77v10.47h47.27V1.68z M12.4,7.97V6.08H6.77V5.2h6.33V2.97H5.6
		c-0.78,0-1.41,0.63-1.41,1.41v5.31c0,0.78,0.63,1.41,1.41,1.41h7.51V8.87H6.77v-0.9H12.4z M14.56,2.97V5.2h5.77
		c0,0-3.87,2.41-5.22,3.31c-1.35,0.9-1.15,1.33-1.15,1.33c0,1.31,1.48,1.25,1.48,1.25h8.83V8.87h-6.02l6.02-4.03
		c0,0,0.54-0.27,0.47-1.02c-0.1-1.01-1.56-0.86-1.56-0.86H14.56z M17.47,6.04h-3.94v1.89h0.96C15.38,7.36,16.56,6.61,17.47,6.04
		 M21.34,7.93h3.96V6.04h-0.98C23.41,6.61,22.23,7.36,21.34,7.93 M45.3,2.97h-0.4h-5.78h-0.54c-0.78,0-1.41,0.63-1.41,1.41v5.31
		c0,0.78,0.63,1.41,1.41,1.41h0.86h5.24h0.63c0.78,0,1.41-0.63,1.41-1.41V4.37C46.7,3.6,46.07,2.97,45.3,2.97 M44.13,5.16h-4.38
		v3.67h4.38V5.16z M34.28,11.09c1.64,0,1.53-1.33,1.53-1.33v-3.6h-5.04v1.8h2.42v0.9h-4.27V5.2h6.89V2.97h-8.24
		c-0.78,0-1.41,0.63-1.41,1.41v5.31c0,0.78,0.63,1.41,1.41,1.41H34.28z"/>
</g>
</svg>
