<?xml version="1.0" encoding="utf-8"?>
<!-- Generator: Adobe Illustrator 23.1.0, SVG Export Plug-In . SVG Version: 6.00 Build 0)  -->
<svg version="1.1" id="Layer_1" xmlns="http://www.w3.org/2000/svg" xmlns:xlink="http://www.w3.org/1999/xlink" x="0px" y="0px"
	 viewBox="0 0 252.02 68.31" style="enable-background:new 0 0 252.02 68.31;" xml:space="preserve">
<style type="text/css">
	.st0{clip-path:url(#SVGID_2_);fill:#0066CC;}
</style>
<g>
	<defs>
		<rect id="SVGID_1_" x="-533.33" y="-3376.74" width="1440" height="4721"/>
	</defs>
	<clipPath id="SVGID_2_">
		<use xlink:href="#SVGID_1_"  style="overflow:visible;"/>
	</clipPath>
	<rect x="196.34" y="25.51" class="st0" width="21.61" height="18.11"/>
	<path class="st0" d="M8.75,60.01h233.5V8.3H8.75V60.01z M183.6,21.6c0-3.84,3.11-6.95,6.95-6.95h33.19c3.84,0,6.95,3.11,6.95,6.95
		v26.24c0,3.84-3.11,6.95-6.95,6.95h-33.19c-3.84,0-6.95-3.11-6.95-6.95V21.6z M129.18,21.6c0-3.84,3.11-6.95,6.95-6.95h40.71V25.7
		h-34.05V43.8h21.11v-4.45h-11.97v-8.88h24.91v17.75c0,0,0.56,6.56-7.54,6.56h-33.17c-3.84,0-6.95-3.11-6.95-6.95V21.6z M125,39.17
		h-19.58c4.4-2.83,10.22-6.51,14.73-9.34H125V39.17z M71.9,14.65h42.6c0,0,7.23-0.73,7.72,4.25c0.36,3.69-2.32,5.02-2.32,5.02
		L90.18,43.8h29.72v10.99H76.29c0,0-7.33,0.29-7.33-6.17c0,0-0.97-2.12,5.69-6.56c6.66-4.44,25.76-16.36,25.76-16.36H71.9V14.65z
		 M66.82,29.83h19.46c-4.5,2.83-10.33,6.51-14.73,9.34h-4.73V29.83z M20.71,21.6c0-3.84,3.11-6.95,6.95-6.95h37.07V25.7H33.45v4.32
		h27.8v9.34h-27.8v4.45h31.29v10.99H27.66c-3.84,0-6.95-3.11-6.95-6.95V21.6z"/>
	<path class="st0" d="M249.82,2.2c-1.42-1.42-3.31-2.2-5.32-2.2H7.53C3.38,0,0,3.38,0,7.53v53.26c0,2.01,0.78,3.9,2.2,5.32
		c1.42,1.42,3.31,2.2,5.32,2.2h236.97c2.01,0,3.9-0.78,5.32-2.2c1.42-1.42,2.2-3.31,2.2-5.32V7.53
		C252.02,5.52,251.24,3.63,249.82,2.2 M250.86,60.79c0,3.51-2.86,6.37-6.37,6.37H7.53c-1.7,0-3.3-0.66-4.5-1.86
		c-1.2-1.2-1.86-2.8-1.86-4.5V7.53c0-1.7,0.66-3.3,1.86-4.5c1.2-1.2,2.8-1.86,4.5-1.86h236.97c1.7,0,3.3,0.66,4.5,1.86
		c1.2,1.2,1.87,2.8,1.87,4.5V60.79z"/>
</g>
</svg>
