<?xml version="1.0" encoding="utf-8"?>
<!-- Generator: Adobe Illustrator 23.1.0, SVG Export Plug-In . SVG Version: 6.00 Build 0)  -->
<svg version="1.1" id="Layer_1" xmlns="http://www.w3.org/2000/svg" xmlns:xlink="http://www.w3.org/1999/xlink" x="0px" y="0px"
	 viewBox="0 0 53.72 53.53" style="enable-background:new 0 0 53.72 53.53;" xml:space="preserve">
<style type="text/css">
	.st0{clip-path:url(#SVGID_2_);fill:#0066CB;}
</style>
<g>
	<defs>
		<rect id="SVGID_1_" x="-619.02" y="-3734.63" width="1440" height="4721"/>
	</defs>
	<clipPath id="SVGID_2_">
		<use xlink:href="#SVGID_1_"  style="overflow:visible;"/>
	</clipPath>
	<path class="st0" d="M31.07,53.4l-0.01-18.77l6.26,0l1.19-7.77l-7.45,0l0-5.04c0-2.12,1.04-4.19,4.38-4.2l3.39,0l0-6.61
		c0,0-3.07-0.52-6.01-0.52c-6.14,0-10.14,3.72-10.14,10.45l0,5.92l-6.82,0l0,7.77l6.82,0l0.01,18.77C9.83,51.39,0.01,40.28,0,26.87
		C-0.01,12.03,12.01,0.01,26.85,0c14.84-0.01,26.87,12.01,26.87,26.85C53.73,40.26,43.91,51.37,31.07,53.4"/>
</g>
</svg>
