<?xml version="1.0" encoding="utf-8"?>
<!-- Generator: Adobe Illustrator 23.1.0, SVG Export Plug-In . SVG Version: 6.00 Build 0)  -->
<svg version="1.1" id="Layer_1" xmlns="http://www.w3.org/2000/svg" xmlns:xlink="http://www.w3.org/1999/xlink" x="0px" y="0px"
	 viewBox="0 0 1440 383.48" style="enable-background:new 0 0 1440 383.48;" xml:space="preserve">
<style type="text/css">
	.st0{clip-path:url(#SVGID_2_);fill:#0066CB;}
	.st1{clip-path:url(#SVGID_4_);fill:#FFFFFF;}
</style>
<g>
	<defs>
		<rect id="SVGID_1_" y="-4279.14" width="1440" height="4721"/>
	</defs>
	<clipPath id="SVGID_2_">
		<use xlink:href="#SVGID_1_"  style="overflow:visible;"/>
	</clipPath>
	<path class="st0" d="M209.53,377.19c31.7-3.35,53.85-7.52,63.5-9.22c155.17-27.36,320.24,11.9,526.43,19.46
		c162.51,5.96,149.9-15.13,400.46-13.31c99.22,0.72,182.05,4.61,240.08,8.15V0H0v372.85C51.1,380.4,123.45,386.28,209.53,377.19"/>
</g>
<g>
	<defs>
		<rect id="SVGID_3_" y="-4279.14" width="1440" height="4721"/>
	</defs>
	<clipPath id="SVGID_4_">
		<use xlink:href="#SVGID_3_"  style="overflow:visible;"/>
	</clipPath>
	<path class="st1" d="M549.99,349.8l-4.41-4.29c-0.21-0.21-0.46-0.36-0.72-0.47l-1.78-8.56l5.24,0.6c0.51,0.06,0.97-0.31,1.03-0.82
		c0.23-2.01-1.21-3.83-3.23-4.06l-26.41-3.03c-2.02-0.23-3.83,1.21-4.07,3.23c-0.06,0.51,0.31,0.97,0.82,1.03l5.41,0.62l-0.94,8.22
		l-0.5-0.06c-1.35-0.15-2.57,0.81-2.73,2.16l-0.23,2.01l-1.13-0.13c-1.24-0.14-2.37,0.75-2.51,1.99l-1.03,8.97
		c-0.14,1.24,0.75,2.37,1.99,2.51l0.02,0c0.46-3.97,4.05-6.83,8.03-6.37c3.98,0.46,6.83,4.05,6.37,8.02l6.98,0.8
		c0.46-3.98,4.05-6.83,8.03-6.37c3.93,0.45,6.77,3.97,6.39,7.89c0.91-0.21,1.63-0.97,1.75-1.95l0.52-4.5
		C553.19,354.5,552.19,351.93,549.99,349.8 M536.02,354.94c-0.16,0.24-0.45,0.38-0.74,0.34l-3.39-0.39
		c-0.43-0.05-0.74-0.44-0.69-0.87l0.43-3.75c0.14-1.24-0.75-2.36-1.99-2.51l-3.96-0.46l0.23-2.01c0.15-1.35-0.82-2.57-2.17-2.72
		l-0.5-0.06l0.94-8.22l16.46,1.89l1.91,9.2c-0.17,0.14-0.32,0.32-0.45,0.51L536.02,354.94z"/>
	<path class="st1" d="M522.54,356c-2.5-0.29-4.77,1.51-5.06,4.01c-0.29,2.5,1.51,4.77,4.02,5.05c2.51,0.29,4.77-1.51,5.06-4.01
		C526.84,358.55,525.04,356.28,522.54,356 M523.12,361.17c-0.07,0.64-0.65,1.1-1.29,1.02c-0.64-0.07-1.1-0.65-1.03-1.29l0.12-1.02
		c0.07-0.64,0.65-1.1,1.29-1.02c0.64,0.07,1.1,0.65,1.03,1.29L523.12,361.17z"/>
	<path class="st1" d="M543.92,358.45c-2.51-0.29-4.77,1.51-5.06,4.01c-0.29,2.5,1.51,4.77,4.02,5.05c2.51,0.29,4.77-1.51,5.06-4.01
		C548.22,361,546.42,358.74,543.92,358.45 M544.5,363.63c-0.07,0.64-0.65,1.1-1.29,1.02c-0.64-0.07-1.1-0.65-1.03-1.29l0.12-1.02
		c0.07-0.64,0.65-1.1,1.29-1.02c0.64,0.07,1.1,0.65,1.03,1.29L544.5,363.63z"/>
</g>
</svg>
