<?xml version="1.0" encoding="utf-8"?>
<!-- Generator: Adobe Illustrator 23.1.0, SVG Export Plug-In . SVG Version: 6.00 Build 0)  -->
<svg version="1.1" id="Layer_1" xmlns="http://www.w3.org/2000/svg" xmlns:xlink="http://www.w3.org/1999/xlink" x="0px" y="0px"
	 viewBox="0 0 39.8 39.98" style="enable-background:new 0 0 39.8 39.98;" xml:space="preserve">
<style type="text/css">
	.st0{clip-path:url(#SVGID_2_);fill:#89980F;}
	.st1{clip-path:url(#SVGID_2_);fill:#F2F4E6;}
</style>
<g>
	<defs>
		<rect id="SVGID_1_" x="-91.02" y="-214.02" width="1440" height="960"/>
	</defs>
	<clipPath id="SVGID_2_">
		<use xlink:href="#SVGID_1_"  style="overflow:visible;"/>
	</clipPath>
	<path class="st0" d="M19.98,39.98c11.05,0,20-8.95,20-20c0-11.04-8.95-20-20-20c-11.05,0-20,8.96-20,20
		C-0.02,31.02,8.94,39.98,19.98,39.98"/>
	<path class="st1" d="M17.07,26.8c0.15,0.17,0.34,0.25,0.57,0.25c0.23,0,0.42-0.09,0.57-0.25l9.36-9.33
		c0.15-0.15,0.22-0.34,0.22-0.57c0-0.23-0.07-0.42-0.22-0.57l-1.17-1.14c-0.15-0.17-0.33-0.25-0.56-0.25s-0.42,0.08-0.59,0.25
		l-7.62,7.62l-3.55-3.55c-0.17-0.17-0.37-0.25-0.59-0.25s-0.41,0.08-0.56,0.25l-1.17,1.14c-0.15,0.15-0.22,0.34-0.22,0.57
		c0,0.23,0.07,0.42,0.22,0.57L17.07,26.8z"/>
	<path class="st0" d="M19.98,39.98c11.05,0,20-8.95,20-20c0-11.04-8.95-20-20-20c-11.05,0-20,8.96-20,20
		C-0.02,31.02,8.94,39.98,19.98,39.98"/>
	<path class="st1" d="M17.07,26.8c0.15,0.17,0.34,0.25,0.57,0.25c0.23,0,0.42-0.09,0.57-0.25l9.36-9.33
		c0.15-0.15,0.22-0.34,0.22-0.57c0-0.23-0.07-0.42-0.22-0.57l-1.17-1.14c-0.15-0.17-0.33-0.25-0.56-0.25s-0.42,0.08-0.59,0.25
		l-7.62,7.62l-3.55-3.55c-0.17-0.17-0.37-0.25-0.59-0.25s-0.41,0.08-0.56,0.25l-1.17,1.14c-0.15,0.15-0.22,0.34-0.22,0.57
		c0,0.23,0.07,0.42,0.22,0.57L17.07,26.8z"/>
</g>
</svg>
