<?xml version="1.0" encoding="utf-8"?>
<!-- Generator: Adobe Illustrator 23.1.0, SVG Export Plug-In . SVG Version: 6.00 Build 0)  -->
<svg version="1.1" id="Layer_1" xmlns="http://www.w3.org/2000/svg" xmlns:xlink="http://www.w3.org/1999/xlink" x="0px" y="0px"
	 viewBox="0 0 48.54 48.53" style="enable-background:new 0 0 48.54 48.53;" xml:space="preserve">
<style type="text/css">
	.st0{clip-path:url(#SVGID_2_);fill:#0066CB;}
</style>
<g>
	<defs>
		<rect id="SVGID_1_" x="-772.39" y="-3737.15" width="1440" height="4721"/>
	</defs>
	<clipPath id="SVGID_2_">
		<use xlink:href="#SVGID_1_"  style="overflow:visible;"/>
	</clipPath>
	<path class="st0" d="M48.38,34.27c-0.19,3.89-1.08,7.33-3.92,10.17c-2.84,2.85-6.28,3.74-10.17,3.92
		c-4.01,0.23-16.02,0.23-20.03,0.01c-3.89-0.19-7.32-1.08-10.17-3.92c-2.85-2.84-3.74-6.28-3.93-10.17
		c-0.23-4.01-0.23-16.02-0.01-20.03c0.19-3.89,1.07-7.33,3.92-10.17c2.85-2.84,6.29-3.73,10.17-3.91
		c4.01-0.23,16.02-0.23,20.03-0.01c3.89,0.19,7.33,1.08,10.17,3.92c2.85,2.84,3.74,6.28,3.93,10.17
		C48.6,18.26,48.6,30.26,48.38,34.27 M44.17,24.26c0-3.53,0.29-11.11-0.98-14.31c-0.86-2.13-2.49-3.77-4.62-4.61
		C35.39,4.09,27.8,4.37,24.26,4.37c-3.53,0-11.11-0.29-14.31,0.98C7.82,6.21,6.19,7.85,5.35,9.97c-1.26,3.18-0.97,10.78-0.97,14.31
		c0,3.53-0.29,11.11,0.98,14.31c0.86,2.13,2.49,3.77,4.62,4.61c3.18,1.26,10.78,0.97,14.31,0.97c3.53,0,11.11,0.29,14.31-0.98
		c2.13-0.86,3.77-2.49,4.61-4.62C44.47,35.39,44.17,27.79,44.17,24.26 M36.72,24.27c0,6.89-5.55,12.45-12.44,12.45
		c-6.89,0-12.45-5.55-12.45-12.44c0-6.89,5.55-12.45,12.44-12.45C31.16,11.82,36.71,17.38,36.72,24.27 M32.36,24.27
		c0-4.46-3.63-8.09-8.09-8.09c-4.46,0-8.09,3.63-8.09,8.09c0,4.46,3.64,8.09,8.09,8.09C28.73,32.36,32.37,28.73,32.36,24.27
		 M37.22,14.21c-1.61,0-2.9-1.3-2.9-2.9c0-1.6,1.3-2.9,2.9-2.9c1.6,0,2.9,1.3,2.9,2.9C40.12,12.92,38.83,14.21,37.22,14.21"/>
</g>
</svg>
