<?xml version="1.0" encoding="utf-8"?>
<!-- Generator: Adobe Illustrator 23.1.0, SVG Export Plug-In . SVG Version: 6.00 Build 0)  -->
<svg version="1.1" id="Layer_1" xmlns="http://www.w3.org/2000/svg" xmlns:xlink="http://www.w3.org/1999/xlink" x="0px" y="0px"
	 viewBox="0 0 208 79" style="enable-background:new 0 0 208 79;" xml:space="preserve">
<style type="text/css">
	.st0{clip-path:url(#SVGID_2_);fill:#4E89D2;}
	.st1{clip-path:url(#SVGID_2_);fill:#1A1A1A;}
</style>
<g>
	<defs>
		<rect id="SVGID_1_" x="-46" y="-117" width="1440" height="960"/>
	</defs>
	<clipPath id="SVGID_2_">
		<use xlink:href="#SVGID_1_"  style="overflow:visible;"/>
	</clipPath>
	<path class="st0" d="M93.79,20.78h-4.41v-8.16h-4.41v29.65h4.41V29.1H86.7v-3.16h7.09v14.1c0,0.95-0.26,1.84-0.77,2.67
		c-0.51,0.83-1.19,1.49-2.04,1.98c-0.85,0.49-1.74,0.74-2.66,0.74H85.7c-1.47,0-2.71-0.59-3.72-1.78c-1.01-1.19-1.52-2.52-1.52-4
		V14.98c0-0.9,0.25-1.78,0.76-2.63c0.5-0.85,1.17-1.53,2.01-2.05c0.83-0.52,1.7-0.77,2.61-0.77h2.57c0.9,0,1.77,0.27,2.61,0.82
		c0.84,0.55,1.51,1.25,2.01,2.12c0.5,0.86,0.76,1.75,0.76,2.65V20.78z"/>
	<path class="st0" d="M96.19,40.81V21.05c0-0.71,0.27-1.41,0.8-2.09c0.53-0.68,1.23-1.22,2.09-1.64c0.86-0.42,1.74-0.63,2.62-0.63
		h2.49c0.92,0,1.81,0.22,2.66,0.65c0.86,0.44,1.54,1.01,2.06,1.7c0.52,0.7,0.77,1.42,0.77,2.15v19.91c0,0.78-0.25,1.5-0.75,2.16
		c-0.5,0.66-1.17,1.18-2.03,1.57c-0.85,0.39-1.76,0.58-2.72,0.58h-2.68c-0.94,0-1.82-0.22-2.63-0.67c-0.82-0.45-1.47-1.03-1.95-1.75
		C96.43,42.29,96.19,41.56,96.19,40.81 M100.68,42.9h4.41v-23.6h-4.41V42.9z"/>
	<path class="st0" d="M112.08,16.61h4.5v26.35h4.5v-3.23h4.41v5.69h-7.94c-0.97,0-1.87-0.2-2.72-0.6c-0.85-0.4-1.52-0.94-2.01-1.62
		c-0.49-0.68-0.74-1.41-0.74-2.19V16.61z"/>
	<path class="st0" d="M141.29,16.61v9.08h-4.48v-6.48h-4.43v10.61h4.41v2.53h-4.41v13.07h-4.5V20.98c0-0.7,0.26-1.39,0.79-2.07
		c0.53-0.68,1.21-1.24,2.05-1.66c0.84-0.42,1.69-0.63,2.57-0.63H141.29z"/>
	<path class="st0" d="M159.74,20.78h-4.41v-8.16h-4.41v29.65h4.41v-8.01h4.41v5.78c0,0.95-0.26,1.85-0.77,2.68
		c-0.51,0.83-1.19,1.49-2.04,1.98c-0.85,0.49-1.74,0.74-2.66,0.74h-2.61c-1.47,0-2.71-0.59-3.72-1.78c-1.01-1.19-1.52-2.52-1.52-4
		V14.98c0-0.9,0.25-1.78,0.76-2.63c0.5-0.85,1.17-1.53,2.01-2.05c0.83-0.52,1.7-0.77,2.61-0.77h2.57c0.9,0,1.77,0.27,2.61,0.82
		c0.84,0.55,1.51,1.25,2.01,2.12c0.51,0.86,0.76,1.75,0.76,2.65V20.78z"/>
	<path class="st0" d="M166.24,45.43h-4.58V21.06c0-0.74,0.26-1.45,0.79-2.13c0.52-0.68,1.21-1.22,2.06-1.63
		c0.85-0.4,1.73-0.6,2.65-0.6h2.49c0.95,0,1.85,0.21,2.71,0.64c0.86,0.43,1.54,0.99,2.04,1.67c0.51,0.69,0.76,1.41,0.76,2.15v24.26
		h-4.48v-8.91h-4.43V45.43z M166.14,34.05h4.43V19.16h-4.43V34.05z"/>
	<path class="st0" d="M187.82,45.43c-0.79-0.7-1.19-1.53-1.19-2.48v-10.6h-4.41v13h-4.58V16.7h8.07c0.92,0,1.8,0.22,2.66,0.66
		c0.86,0.44,1.54,1.01,2.06,1.7c0.52,0.69,0.78,1.4,0.78,2.11v7.01l-2.31,2.86l2.31,2.78v13.29
		C190.01,46.87,188.88,46.31,187.82,45.43 M182.22,29.82h4.52V19.16h-4.52V29.82z"/>
	<polygon class="st0" points="192.56,16.7 205.98,16.7 205.98,19.16 201.48,19.16 201.48,45.43 197.07,45.43 197.07,19.16 
		192.56,19.16 	"/>
	<path class="st1" d="M102.26,57.72h11.45c-0.15,2.82-1.12,5.13-2.9,6.94c-1.78,1.81-3.97,2.72-6.56,2.72
		c-2.66,0-4.88-0.97-6.68-2.92c-1.79-1.95-2.69-4.37-2.69-7.25c0-1.35,0.24-2.64,0.73-3.85c0.49-1.21,1.21-2.3,2.15-3.28
		c0.91-0.95,1.92-1.65,3.02-2.11c1.1-0.46,2.33-0.69,3.68-0.69c1.79,0,3.39,0.45,4.81,1.36c1.42,0.91,2.56,2.2,3.42,3.89h-2.21
		c-0.87-1.16-1.8-2.03-2.79-2.58c-0.99-0.55-2.1-0.83-3.33-0.83c-2.12,0-3.91,0.79-5.38,2.39s-2.2,3.5-2.2,5.74
		c0,2.38,0.73,4.36,2.19,5.94c1.46,1.59,3.26,2.38,5.4,2.38c1.69,0,3.2-0.57,4.54-1.7c1.34-1.14,2.21-2.61,2.61-4.42h-9.29V57.72z"
		/>
	<path class="st1" d="M115.1,67h-1.93l7.16-16.03h2.17L129.61,67h-1.93l-2.2-5h-8.19L115.1,67z M124.85,60.55l-3.49-8.06l-3.44,8.06
		H124.85z"/>
	<path class="st1" d="M133.12,52.56V67h-1.79V50.97h4.94c1.09,0,1.96,0.07,2.62,0.21c0.66,0.14,1.26,0.38,1.8,0.71
		c0.73,0.45,1.31,1.05,1.74,1.8c0.43,0.75,0.64,1.54,0.64,2.38c0,1.24-0.42,2.31-1.27,3.21c-0.85,0.9-1.91,1.39-3.19,1.47l4.46,6.24
		h-2.17l-5.44-7.7h1.74c1.16,0,2.1-0.3,2.82-0.89c0.73-0.6,1.09-1.36,1.09-2.3c0-0.57-0.11-1.08-0.33-1.55
		c-0.22-0.46-0.55-0.87-0.99-1.22c-0.36-0.29-0.8-0.49-1.3-0.61c-0.51-0.12-1.41-0.18-2.71-0.18H133.12z"/>
	<path class="st1" d="M146.72,67h-1.93l7.16-16.03h2.17L161.23,67h-1.93l-2.2-5h-8.19L146.72,67z M156.47,60.55l-3.49-8.06
		l-3.44,8.06H156.47z"/>
	<path class="st1" d="M168.36,59.34h11.45c-0.15,2.34-1.12,4.27-2.9,5.78c-1.78,1.51-3.97,2.26-6.56,2.26
		c-2.66,0-4.88-0.81-6.68-2.43c-1.79-1.62-2.69-3.62-2.69-6.02c0-1.12,0.24-2.19,0.73-3.2c0.49-1.01,1.21-1.92,2.15-2.73
		c0.91-0.78,1.92-1.37,3.02-1.75c1.11-0.38,2.33-0.57,3.68-0.57c1.79,0,3.39,0.37,4.81,1.12c1.42,0.75,2.56,1.82,3.42,3.21h-2.21
		c-0.87-0.95-1.8-1.66-2.79-2.11c-0.99-0.46-2.1-0.68-3.33-0.68c-2.12,0-3.91,0.66-5.38,1.97c-1.47,1.32-2.2,2.9-2.2,4.75
		c0,1.97,0.73,3.61,2.19,4.92c1.46,1.31,3.26,1.97,5.4,1.97c1.69,0,3.2-0.47,4.54-1.41c1.34-0.94,2.21-2.16,2.61-3.67h-9.29V59.34z"
		/>
	<polygon class="st1" points="183.81,58.18 191.56,58.18 191.56,59.76 183.81,59.76 183.81,65.46 191.56,65.46 191.56,67 181.98,67 
		181.98,50.97 191.56,50.97 191.56,52.56 183.81,52.56 	"/>
	<path class="st1" d="M66.29,35.2l4.8-2.13l-0.9-3.36l-0.9-3.35l-5.22,0.55c-0.87-2-1.97-3.9-3.26-5.65l3.09-4.25l-2.46-2.46
		l-2.46-2.46l-4.24,3.09c-1.73-1.28-3.62-2.39-5.65-3.27l0.55-5.21l-3.36-0.9l-3.35-0.9l-2.13,4.8c-2.21-0.25-4.39-0.24-6.52,0
		l-2.13-4.8l-3.35,0.9l-3.36,0.9L26,11.94c-2,0.87-3.89,1.97-5.64,3.26L16.1,12.1l-2.46,2.46l-2.46,2.46l3.09,4.24
		c-1.28,1.73-2.39,3.62-3.27,5.65L5.8,26.35l-0.9,3.35L4,33.06l4.8,2.13c-0.25,2.21-0.24,4.39,0,6.52L4,43.85l0.9,3.36l0.9,3.35
		L11.02,50c0.87,2,1.97,3.9,3.26,5.65l-3.09,4.25l2.46,2.46l2.45,2.46l4.24-3.09c1.73,1.28,3.62,2.39,5.65,3.27l-0.55,5.22l3.36,0.9
		l3.35,0.9l2.13-4.8c2.21,0.25,4.39,0.24,6.52,0l2.13,4.8l3.36-0.9l3.36-0.9l-0.55-5.23c2-0.87,3.89-1.97,5.64-3.26l4.25,3.09
		l2.46-2.46l2.46-2.46l-3.09-4.24c1.28-1.73,2.39-3.62,3.27-5.65l5.21,0.55l0.9-3.36l0.9-3.36l-4.8-2.13
		C66.54,39.51,66.53,37.33,66.29,35.2 M40.73,55.94v-9.89c3.34-1.22,5.72-4.29,5.7-7.89c-0.01-3.21-1.92-5.98-4.71-7.39l0.02,3.78
		c0.01,1.49-1.19,2.7-2.68,2.71l-1.51,0.01l-1.51-0.01c-1.49-0.01-2.69-1.22-2.68-2.71l0.02-3.78c-2.79,1.41-4.7,4.19-4.71,7.39
		c-0.02,3.59,2.36,6.67,5.7,7.89v9.89c-8.29-1.5-14.59-8.75-14.59-17.48c0-9.81,7.96-17.77,17.77-17.77s17.77,7.96,17.77,17.77
		C55.31,47.18,49.02,54.43,40.73,55.94"/>
</g>
</svg>
