<?xml version="1.0" encoding="utf-8"?>
<!-- Generator: Adobe Illustrator 24.0.2, SVG Export Plug-In . SVG Version: 6.00 Build 0)  -->
<svg version="1.1" id="Layer_1" xmlns="http://www.w3.org/2000/svg" xmlns:xlink="http://www.w3.org/1999/xlink" x="0px" y="0px"
	 viewBox="0 0 118.44 27.44" style="enable-background:new 0 0 118.44 27.44;" xml:space="preserve">
<style type="text/css">
	.st0{fill:#FFFFFF;}
</style>
<g>
	<path class="st0" d="M8.71,21.85c-0.01,0.08-0.04,0.1-0.13,0.1H5.47c-0.32,0-0.55-0.27-0.51-0.58l2.44-15.5
		c0.06-0.4,0.42-0.71,0.83-0.71c6.35,0,6.88-0.15,8.5,0.48c2.51,0.97,2.74,3.31,1.83,5.85c-0.9,2.61-3.02,3.73-5.84,3.76
		c-1.81,0.03-2.9-0.29-3.14,1.01C9.46,17.06,8.88,20.79,8.71,21.85 M20.84,14.12c-0.69,3.48-3,4.68-5.96,4.68
		c-0.63,0-1.03-0.1-1.22,0.82c-0.65,4.06-0.57,3.58-0.6,3.8c-0.07,0.36-0.37,0.62-0.72,0.62H9.69c-0.3,0-0.48-0.24-0.44-0.54
		c0,0,0.19-1.22,1.13-7.07c0.03-0.25,0.2-0.39,0.45-0.39c2.25,0,6.86,0.41,8.52-4.33c0.15-0.46,0.28-0.93,0.37-1.4
		c0.02-0.13,0.05-0.11,0.13-0.05C21.03,11.15,21.11,12.67,20.84,14.12"/>
</g>
<g>
	<path class="st0" d="M115.1,27.44H3.33C1.5,27.44,0,25.95,0,24.11V3.33C0,1.5,1.5,0,3.33,0H115.1c1.84,0,3.33,1.5,3.33,3.33v20.78
		C118.44,25.95,116.94,27.44,115.1,27.44z M3.33,1C2.05,1,1,2.05,1,3.33v20.78c0,1.29,1.05,2.33,2.33,2.33H115.1
		c1.29,0,2.33-1.05,2.33-2.33V3.33c0-1.29-1.05-2.33-2.33-2.33H3.33z"/>
</g>
<g>
	<path class="st0" d="M86.35,10.85h-0.33c-0.1,0-0.19,0.07-0.2,0.17l-0.33,2.07h0.23c0.77,0,1.64-0.14,1.8-1.12
		C87.68,10.99,87.17,10.85,86.35,10.85"/>
</g>
<g>
	<path class="st0" d="M56.62,10.72h-0.23c-0.14,0-0.26,0.1-0.28,0.24l-0.35,2.26h0.51c0.89,0,1.81,0,2-1.21
		c0.07-0.42,0.01-0.73-0.16-0.94C57.8,10.72,57.22,10.72,56.62,10.72"/>
</g>
<g>
	<path class="st0" d="M40.32,13.52c-0.92,0-1.66,0.64-1.81,1.55c-0.08,0.45,0.01,0.85,0.25,1.13c0.24,0.29,0.62,0.43,1.08,0.43
		c0.93,0,1.66-0.62,1.82-1.54c0.07-0.45-0.03-0.85-0.27-1.14C41.15,13.67,40.78,13.52,40.32,13.52"/>
</g>
<g>
	<path class="st0" d="M32.6,10.72h-0.23c-0.14,0-0.26,0.1-0.28,0.24l-0.35,2.26h0.51c0.89,0,1.81,0,2-1.21
		c0.07-0.42,0.01-0.73-0.16-0.94C33.78,10.72,33.21,10.72,32.6,10.72"/>
</g>
<g>
	<path class="st0" d="M64.34,13.52c-0.92,0-1.66,0.64-1.81,1.55c-0.08,0.45,0.01,0.85,0.25,1.13c0.24,0.29,0.61,0.43,1.08,0.43
		c0.93,0,1.66-0.62,1.82-1.54c0.07-0.45-0.03-0.85-0.27-1.14C65.17,13.67,64.8,13.52,64.34,13.52"/>
</g>
<g>
	<path class="st0" d="M115.1,0.5H24.17v26.45h90.93c1.57,0,2.83-1.27,2.83-2.83V3.33C117.94,1.77,116.67,0.5,115.1,0.5 M32.9,15.08
		h-1.07c-0.23,0-0.43,0.17-0.46,0.39l-0.37,2.33c-0.04,0.23-0.23,0.39-0.46,0.39h-1.61c-0.17,0-0.3-0.15-0.28-0.32l1.36-8.64
		c0.04-0.23,0.23-0.39,0.46-0.39h3.37c1.13,0,1.97,0.3,2.45,0.86c0.44,0.51,0.58,1.24,0.43,2.17C36.4,14.01,35.12,15.08,32.9,15.08
		 M43.32,17.81c-0.04,0.23-0.23,0.39-0.46,0.39h-1.45c-0.17,0-0.3-0.15-0.28-0.32l0.07-0.45c0,0-0.8,0.92-2.23,0.92
		c-0.84,0-1.54-0.24-2.03-0.82c-0.54-0.63-0.76-1.53-0.6-2.48c0.29-1.89,1.82-3.24,3.6-3.24c0.78,0,1.56,0.17,1.91,0.68l0.11,0.16
		l0.07-0.45c0.02-0.14,0.14-0.24,0.28-0.24h1.61c0.17,0,0.3,0.15,0.28,0.32L43.32,17.81z M46.96,20.38h-1.62
		c-0.23,0-0.36-0.26-0.23-0.44l1.68-2.37l-1.78-5.24c-0.06-0.18,0.07-0.37,0.27-0.37h1.59c0.21,0,0.39,0.14,0.45,0.33l0.95,3.16
		l2.24-3.29c0.09-0.13,0.23-0.21,0.39-0.21h1.62c0.23,0,0.36,0.25,0.23,0.44l-5.39,7.78C47.26,20.31,47.12,20.38,46.96,20.38
		 M56.92,15.08h-1.07c-0.23,0-0.43,0.17-0.46,0.39l-0.39,2.45c-0.03,0.16-0.16,0.28-0.32,0.28h-1.73c-0.17,0-0.3-0.15-0.28-0.32
		l1.36-8.64c0.04-0.23,0.23-0.39,0.46-0.39h3.37c1.13,0,1.98,0.3,2.45,0.86c0.44,0.51,0.58,1.24,0.43,2.17
		C60.42,14.01,59.14,15.08,56.92,15.08 M67.34,17.81c-0.04,0.23-0.23,0.39-0.46,0.39h-1.45c-0.17,0-0.3-0.15-0.28-0.32l0.07-0.45
		c0,0-0.8,0.92-2.23,0.92c-0.84,0-1.54-0.24-2.03-0.82c-0.54-0.63-0.76-1.53-0.6-2.48c0.3-1.89,1.82-3.24,3.6-3.24
		c0.78,0,1.55,0.17,1.9,0.68l0.11,0.16l0.07-0.45c0.02-0.14,0.14-0.24,0.28-0.24h1.61c0.17,0,0.3,0.15,0.28,0.32L67.34,17.81z
		 M70.58,17.81c-0.04,0.23-0.23,0.39-0.46,0.39h-1.39c-0.17,0-0.3-0.15-0.28-0.32l1.38-8.79c0.02-0.14,0.14-0.24,0.28-0.24h1.56
		c0.17,0,0.3,0.15,0.28,0.32L70.58,17.81z M82.17,11.72c-0.4-0.41-0.99-0.63-1.62-0.63c-1.43,0-2.57,1.1-2.79,2.49
		c-0.21,1.42,0.6,2.45,2.05,2.45c0.6,0,1.24-0.23,1.77-0.61c0.15-0.1,0.35,0.02,0.32,0.2l-0.33,2.06c-0.02,0.12-0.11,0.22-0.23,0.26
		c-0.71,0.21-1.26,0.36-1.93,0.36c-3.88,0-4.5-3.32-4.3-4.73c0.56-3.95,3.77-4.86,5.73-4.75c0.63,0.04,1.2,0.12,1.76,0.33
		c0.18,0.07,0.29,0.25,0.26,0.44l-0.33,2.02C82.49,11.78,82.28,11.84,82.17,11.72 M89.98,11.82c-0.2,1.24-1.06,2.32-2.38,2.54
		l2.07,3.4c0.08,0.13-0.01,0.29-0.16,0.29H87.1c-0.1,0-0.19-0.06-0.24-0.15l-1.59-3.31h-0.02l-0.51,3.24
		c-0.02,0.13-0.13,0.22-0.26,0.22h-1.89c-0.12,0-0.21-0.11-0.19-0.22l1.35-8.56c0.02-0.13,0.13-0.23,0.26-0.23h3.27
		C89.06,9.05,90.28,9.9,89.98,11.82 M95.74,12.54c0.12,0,0.21,0.11,0.19,0.22l-0.23,1.48c-0.02,0.16-0.16,0.28-0.32,0.28H93.3
		c-0.16,0-0.3,0.12-0.32,0.28l-0.21,1.28h2.56c0.12,0,0.21,0.11,0.19,0.22l-0.23,1.48c-0.02,0.16-0.16,0.28-0.32,0.28h-4.62
		c-0.12,0-0.21-0.11-0.19-0.22l1.34-8.51c0.03-0.16,0.16-0.28,0.32-0.28h4.62c0.12,0,0.21,0.1,0.19,0.22l-0.23,1.48
		c-0.03,0.16-0.16,0.28-0.33,0.28h-2.22c-0.16,0-0.3,0.12-0.32,0.28l-0.19,1.23H95.74z M99.4,18.06h-3.1
		c-0.12,0-0.21-0.11-0.19-0.22l1.34-8.51c0.03-0.16,0.16-0.28,0.33-0.28h3.04c2.51,0,4.27,1.97,3.87,4.5
		C104.29,16.09,101.9,18.06,99.4,18.06 M107.06,17.78c-0.03,0.16-0.16,0.28-0.32,0.28h-1.84c-0.12,0-0.21-0.11-0.19-0.22l1.34-8.51
		c0.03-0.16,0.16-0.28,0.32-0.28h1.84c0.12,0,0.21,0.1,0.19,0.22L107.06,17.78z M115.07,10.76c-0.02,0.16-0.16,0.28-0.32,0.28h-1.65
		l-1.07,6.75c-0.03,0.16-0.16,0.28-0.33,0.28h-1.84c-0.12,0-0.21-0.11-0.19-0.22l1.08-6.8h-1.71c-0.12,0-0.21-0.1-0.19-0.22
		l0.23-1.48c0.02-0.16,0.16-0.28,0.32-0.28h5.71c0.12,0,0.21,0.1,0.19,0.22L115.07,10.76z"/>
</g>
<g>
	<path class="st0" d="M100.08,11.04H99.7c-0.09,0-0.17,0.07-0.19,0.16l-0.78,4.88h0.53c1.4,0,2.71-0.76,3-2.52
		C102.51,11.95,101.59,11.04,100.08,11.04"/>
</g>
</svg>
