<?xml version="1.0" encoding="utf-8"?>
<!-- Generator: Adobe Illustrator 24.0.2, SVG Export Plug-In . SVG Version: 6.00 Build 0)  -->
<svg version="1.1" id="Layer_1" xmlns="http://www.w3.org/2000/svg" xmlns:xlink="http://www.w3.org/1999/xlink" x="0px" y="0px"
	 viewBox="0 0 105 105" style="enable-background:new 0 0 105 105;" xml:space="preserve">
<style type="text/css">
	.st0{fill:#89980F;}
	.st1{fill:#F2F4E6;}
</style>
<g>
	<path class="st0" d="M52.5,105c28.99,0,52.5-23.5,52.5-52.5C105,23.51,81.49,0,52.5,0C23.51,0,0,23.51,0,52.5
		C0,81.5,23.51,105,52.5,105"/>
</g>
<g>
	<path class="st1" d="M71.42,35.92c0.5,0.06,0.89,0.28,1.17,0.67c0.28,0.39,0.42,0.81,0.42,1.25c0,7-1.75,13.5-5.25,19.5
		c-3.44,5.83-8.08,10.47-13.91,13.91c-6,3.5-12.5,5.25-19.49,5.25c-0.44,0-0.86-0.14-1.25-0.41c-0.39-0.28-0.61-0.67-0.67-1.17
		l-2-8.67c-0.11-0.44-0.06-0.89,0.17-1.33c0.22-0.44,0.56-0.75,1-0.92l9.33-4c0.39-0.17,0.8-0.21,1.25-0.13
		c0.44,0.08,0.8,0.32,1.08,0.71l4.08,5c3.28-1.5,6.18-3.53,8.71-6.08c2.53-2.55,4.54-5.44,6.04-8.66l-5-4.17
		c-0.33-0.28-0.56-0.63-0.67-1.04c-0.11-0.42-0.08-0.85,0.08-1.29l4-9.33c0.17-0.39,0.47-0.69,0.91-0.92
		c0.45-0.22,0.89-0.28,1.33-0.17L71.42,35.92z"/>
</g>
</svg>
