<?xml version="1.0" encoding="utf-8"?>
<!-- Generator: Adobe Illustrator 24.0.2, SVG Export Plug-In . SVG Version: 6.00 Build 0)  -->
<svg version="1.1" id="Layer_1" xmlns="http://www.w3.org/2000/svg" xmlns:xlink="http://www.w3.org/1999/xlink" x="0px" y="0px"
	 viewBox="0 0 105 105" style="enable-background:new 0 0 105 105;" xml:space="preserve">
<style type="text/css">
	.st0{fill:#89980F;}
	.st1{fill:#F2F4E6;}
</style>
<g>
	<path class="st0" d="M52.5,105c28.99,0,52.5-23.5,52.5-52.5C105,23.51,81.49,0,52.5,0C23.51,0,0,23.51,0,52.5
		C0,81.49,23.51,105,52.5,105"/>
</g>
<g>
	<path class="st1" d="M72.81,53.24c0.83,0.83,1.25,1.84,1.25,3.03c0,1.19-0.41,2.2-1.25,3.03L54.66,77.44
		c-0.83,0.83-1.84,1.25-3.03,1.25s-2.2-0.42-3.03-1.25L29.74,58.58c-0.83-0.83-1.25-1.84-1.25-3.03V37.39c0-1.19,0.42-2.2,1.25-3.03
		c0.83-0.83,1.84-1.25,3.03-1.25h18.16c1.19,0,2.2,0.42,3.03,1.25L72.81,53.24z M38.46,47.36c1.19,0,2.2-0.42,3.03-1.25
		c0.83-0.83,1.25-1.84,1.25-3.03c0-1.19-0.42-2.2-1.25-3.03c-0.83-0.83-1.84-1.25-3.03-1.25s-2.19,0.42-3.03,1.25
		c-0.83,0.83-1.25,1.84-1.25,3.03c0,1.19,0.41,2.2,1.25,3.03C36.27,46.95,37.27,47.36,38.46,47.36 M84.21,59.29
		c0.83-0.83,1.25-1.84,1.25-3.03c0-1.19-0.42-2.2-1.25-3.03L65.34,34.37c-0.83-0.83-1.84-1.25-3.03-1.25h-4.36l17.53,17.44
		c1.54,1.6,2.31,3.5,2.31,5.7c0,2.2-0.77,4.09-2.31,5.7L60,77.44c0.83,0.83,1.84,1.25,3.03,1.25c1.19,0,2.19-0.42,3.03-1.25
		L84.21,59.29z"/>
</g>
</svg>
