<?xml version="1.0" encoding="utf-8"?>
<!-- Generator: Adobe Illustrator 23.1.0, SVG Export Plug-In . SVG Version: 6.00 Build 0)  -->
<svg version="1.1" id="Layer_1" xmlns="http://www.w3.org/2000/svg" xmlns:xlink="http://www.w3.org/1999/xlink" x="0px" y="0px"
	 viewBox="0 0 54.98 54.98" style="enable-background:new 0 0 54.98 54.98;" xml:space="preserve">
<style type="text/css">
	.st0{clip-path:url(#SVGID_2_);fill:#89980F;}
	.st1{clip-path:url(#SVGID_2_);fill:#F2F4E6;}
</style>
<g>
	<defs>
		<rect id="SVGID_1_" x="-557.03" y="-799.54" width="1440" height="960"/>
	</defs>
	<clipPath id="SVGID_2_">
		<use xlink:href="#SVGID_1_"  style="overflow:visible;"/>
	</clipPath>
	<path class="st0" d="M27.49,55.11c15.19,0,27.5-12.31,27.5-27.5c0-15.19-12.31-27.5-27.5-27.5c-15.19,0-27.5,12.31-27.5,27.5
		C-0.01,42.8,12.3,55.11,27.49,55.11"/>
	<path class="st1" d="M38.13,27.99c0.43,0.43,0.65,0.96,0.65,1.59c0,0.62-0.22,1.15-0.65,1.58l-9.51,9.51
		c-0.43,0.43-0.96,0.65-1.58,0.65c-0.62,0-1.15-0.22-1.59-0.65l-9.88-9.88c-0.43-0.44-0.65-0.96-0.65-1.59V19.7
		c0-0.62,0.22-1.15,0.65-1.58c0.43-0.43,0.96-0.65,1.58-0.65h9.51c0.62,0,1.15,0.22,1.59,0.65L38.13,27.99z M20.14,24.92
		c0.62,0,1.15-0.22,1.59-0.65c0.43-0.43,0.65-0.96,0.65-1.58c0-0.62-0.22-1.15-0.65-1.59c-0.43-0.43-0.96-0.65-1.59-0.65
		s-1.15,0.22-1.59,0.65c-0.44,0.43-0.65,0.96-0.65,1.59c0,0.62,0.22,1.15,0.65,1.58C18.99,24.7,19.52,24.92,20.14,24.92 M44.1,31.16
		c0.44-0.43,0.65-0.96,0.65-1.58c0-0.62-0.22-1.15-0.65-1.59l-9.88-9.88c-0.44-0.43-0.96-0.65-1.58-0.65h-2.28l9.18,9.14
		c0.81,0.84,1.21,1.83,1.21,2.98c0,1.15-0.4,2.14-1.21,2.98l-8.11,8.11c0.44,0.43,0.96,0.65,1.59,0.65c0.62,0,1.15-0.22,1.59-0.65
		L44.1,31.16z"/>
</g>
</svg>
