<?xml version="1.0" encoding="utf-8"?>
<!-- Generator: Adobe Illustrator 23.1.0, SVG Export Plug-In . SVG Version: 6.00 Build 0)  -->
<svg version="1.1" id="Layer_1" xmlns="http://www.w3.org/2000/svg" xmlns:xlink="http://www.w3.org/1999/xlink" x="0px" y="0px"
	 viewBox="0 0 32.28 32.56" style="enable-background:new 0 0 32.28 32.56;" xml:space="preserve">
<style type="text/css">
	.st0{clip-path:url(#SVGID_2_);fill:#89980F;}
	.st1{clip-path:url(#SVGID_2_);fill:#F2F4E6;}
</style>
<g>
	<defs>
		<rect id="SVGID_1_" x="-1214.65" y="-219.5" width="1440" height="960"/>
	</defs>
	<clipPath id="SVGID_2_">
		<use xlink:href="#SVGID_1_"  style="overflow:visible;"/>
	</clipPath>
	<path class="st0" d="M16.35,32c8.84,0,16-7.16,16-16c0-8.84-7.16-16-16-16c-8.84,0-16,7.16-16,16C0.35,24.84,7.51,32,16.35,32"/>
	<path class="st1" d="M24.77,13.64c0.05-0.1,0.15-2.3-0.7-3.81c-0.85-1.5-2.2-2.15-3.16-2.51c-0.95-0.35-3.41-0.85-4.96-0.8
		c-1.55,0.05-4.11,0.8-5.16,1.5c-1.05,0.7-3.01,2.15-4.16,2.66c-1.15,0.5-2.68,1.27-2.11,2.74c0,0-0.04-0.89,1.51-1.74
		c1.55-0.85,2.71-0.85,5.66,0.45c2.96,1.3,4.56,1.9,7.36,2.05c0,0,0.27,0.03,0.64,0.15c-3.25,0.2-5.35-0.7-6.55-1.2
		c-1.2-0.5-3.51-1.95-5.41-1.8c-1.9,0.15-2.9,1.7-2.9,1.7s-0.55,1.05,0.25,1.6c0.8,0.55,2.3-0.05,2.3-0.05
		c-0.15-2.4,1.2-2.71,1.6-2.71s1.55,0.35,3.11,1.3c1.55,0.95,3.81,1.3,5.26,1.4c1.39,0.1,2.28-0.22,2.35-0.25
		c0.5,0.17,1.18,0.51,1.61,1.2c0,0,1.35,0.45,2.66,1.9l0.95-2.55C24.92,14.9,24.72,13.75,24.77,13.64"/>
	<path class="st1" d="M5.92,22.31c-0.3,0-0.52-0.11-0.52-0.35c0-0.21,0.18-0.41,0.51-0.41c0.25,0,0.5,0.12,0.88,0.41
		C6.53,22.17,6.24,22.31,5.92,22.31 M10.02,15.66c-2.32,0-3.57,1.55-3.57,3.13c0,0.89,0.41,1.48,0.41,1.48l0.94-0.7
		c0,0-0.2-0.39-0.2-0.82c0-0.85,0.78-2,2.33-2c1.41,0,1.98,0.95,1.98,2.15c0,1.59-0.97,3.53-2.34,3.53c-0.44,0-0.8-0.2-1.14-0.45
		c0.21-0.33,0.4-0.68,0.53-1.04c0-0.01,0.88-2.16,0.88-2.16c0.26-0.64,0.72-0.83,0.72-0.83l-0.26-0.75c-0.89,0-1.51,0.67-1.76,1.29
		l-0.85,2.1C7.6,20.79,7.5,21,7.39,21.2c-0.6-0.41-1.06-0.57-1.53-0.57c-1.09,0-1.52,0.8-1.52,1.4c0,0.58,0.39,1.37,1.66,1.37
		c0.72,0,1.3-0.26,1.75-0.65c0.58,0.49,1.05,0.82,1.89,0.82c2.44,0,3.67-2.65,3.67-4.66C13.31,17.01,12.2,15.66,10.02,15.66"/>
	<path class="st1" d="M15.79,21.43c0,0-0.41,0.64-0.9,0.64c-0.18,0-0.28-0.1-0.28-0.33c0-0.57,0.66-2.23,1.36-2.23
		c0.39,0,0.4,0.5,0.4,0.5L15.79,21.43z M25.87,19.49c0.3,0,0.25,0.24,0.13,0.51c-0.18,0.42-0.44,0.79-1.26,0.65
		C24.74,20.64,25.21,19.49,25.87,19.49 M27.87,20.61c-0.63,1.12-1.59,1.71-2.49,1.71c-1.13,0-0.87-0.92-0.87-0.92
		c1.64,0.21,2.35-0.3,2.72-1.11c0.57-1.28-0.28-1.93-1.29-1.93c-1.45,0-2.31,1.21-2.64,2.31c-0.55,0.9-1.09,1.06-1.56,0.86
		c1.05-1.27,1.36-2.52,1.46-3.17l-1.13,0.12c-0.39,1.74-1.34,2.83-2.21,3.48l0.76-3.48h-1.38l-0.48,2.21
		c-0.62,1.05-1.21,1.64-1.55,1.64c-0.16,0-0.31-0.13,0.09-1.14l1.1-2.71h-1.41l-0.25,0.6c0,0-0.2-0.72-1.06-0.72
		c-1.69,0-2.45,2.72-2.45,3.67c0,0.64,0.34,1.16,1,1.16c0.78,0,1.39-0.74,1.39-0.74s0.11,0.74,1.04,0.74c0.67,0,1.25-0.39,1.76-0.96
		l-0.19,0.85h1.38c1.28-0.64,1.58-0.97,1.58-0.97c0.77,0.34,1.43,0.18,1.96-0.28c0.08,0.85,0.67,1.37,1.82,1.37
		c1.7,0,2.79-1.16,3.39-2.23C28.29,20.8,28.05,20.63,27.87,20.61"/>
</g>
</svg>
