<?xml version="1.0" encoding="utf-8"?>
<!-- Generator: Adobe Illustrator 23.1.0, SVG Export Plug-In . SVG Version: 6.00 Build 0)  -->
<svg version="1.1" id="Layer_1" xmlns="http://www.w3.org/2000/svg" xmlns:xlink="http://www.w3.org/1999/xlink" x="0px" y="0px"
	 viewBox="0 0 16 16" style="enable-background:new 0 0 16 16;" xml:space="preserve">
<style type="text/css">
	.st0{fill:#297FCA;}
</style>
<path class="st0" d="M15.78,13.84c0.15,0.15,0.22,0.32,0.22,0.53s-0.07,0.39-0.22,0.53l-0.88,0.88C14.76,15.93,14.58,16,14.38,16
	s-0.39-0.07-0.53-0.22l-3.13-3.13c-0.15-0.15-0.22-0.32-0.22-0.53v-0.5C9.33,12.54,8,13,6.5,13c-1.19,0-2.28-0.29-3.27-0.88
	s-1.78-1.37-2.36-2.36S0,7.69,0,6.5s0.29-2.28,0.88-3.27s1.37-1.78,2.36-2.36S5.31,0,6.5,0s2.28,0.29,3.27,0.88s1.78,1.37,2.36,2.36
	S13,5.31,13,6.5c0,1.5-0.46,2.83-1.38,4h0.5c0.21,0,0.39,0.07,0.53,0.22L15.78,13.84z M6.5,10.5c0.73,0,1.4-0.18,2.02-0.53
	s1.1-0.84,1.45-1.45S10.5,7.23,10.5,6.5s-0.18-1.4-0.53-2.02s-0.84-1.1-1.45-1.45S7.23,2.5,6.5,2.5S5.1,2.68,4.48,3.03
	s-1.1,0.84-1.45,1.45S2.5,5.77,2.5,6.5s0.18,1.4,0.53,2.02s0.84,1.1,1.45,1.45S5.77,10.5,6.5,10.5z"/>
</svg>
