<?xml version="1.0" encoding="utf-8"?>
<!-- Generator: Adobe Illustrator 24.0.2, SVG Export Plug-In . SVG Version: 6.00 Build 0)  -->
<svg version="1.1" id="Layer_1" xmlns="http://www.w3.org/2000/svg" xmlns:xlink="http://www.w3.org/1999/xlink" x="0px" y="0px"
	 viewBox="0 0 105 105" style="enable-background:new 0 0 105 105;" xml:space="preserve">
<style type="text/css">
	.st0{fill:#89980F;}
	.st1{fill:#F2F4E6;}
</style>
<path class="st0" d="M-121.75,52.63"/>
<path class="st0" d="M-121.75,53.63"/>
<g>
	<path class="st0" d="M52.5,105c28.99,0,52.5-23.5,52.5-52.5C105,23.51,81.49,0,52.5,0C23.5,0,0,23.51,0,52.5
		C0,81.5,23.5,105,52.5,105"/>
</g>
<g>
	<path class="st1" d="M35.68,73.16c0.56,0,1.03-0.19,1.42-0.58c0.39-0.39,0.58-0.86,0.58-1.42c0-0.56-0.2-1.03-0.58-1.42
		c-0.39-0.39-0.86-0.58-1.42-0.58c-0.55,0-1.03,0.2-1.42,0.58s-0.58,0.86-0.58,1.42c0,0.55,0.2,1.03,0.58,1.42
		C34.66,72.97,35.13,73.16,35.68,73.16 M72.67,42.92c0.5,2,0.47,4.01-0.08,6.04c-0.55,2.03-1.58,3.82-3.08,5.37
		c-1.67,1.61-3.6,2.67-5.79,3.17c-2.19,0.5-4.37,0.39-6.54-0.33L39.43,74.91c-1.06,1.06-2.32,1.58-3.79,1.58s-2.72-0.51-3.75-1.54
		c-1.03-1.03-1.54-2.28-1.54-3.75c0-1.47,0.53-2.74,1.58-3.79l17.74-17.83c-0.72-2.11-0.83-4.27-0.33-6.5
		c0.5-2.22,1.56-4.14,3.17-5.75c1.5-1.5,3.28-2.53,5.33-3.08c2.06-0.56,4.08-0.58,6.08-0.08c0.39,0.11,0.63,0.35,0.71,0.71
		c0.08,0.36-0.02,0.68-0.29,0.96l-6.17,6.25l0.92,5.66l5.67,0.92l6.25-6.16c0.28-0.28,0.6-0.37,0.96-0.29
		C72.33,42.29,72.56,42.53,72.67,42.92"/>
</g>
</svg>
