<?xml version="1.0" encoding="utf-8"?>
<!-- Generator: Adobe Illustrator 23.1.0, SVG Export Plug-In . SVG Version: 6.00 Build 0)  -->
<svg version="1.1" id="Layer_1" xmlns="http://www.w3.org/2000/svg" xmlns:xlink="http://www.w3.org/1999/xlink" x="0px" y="0px"
	 viewBox="0 0 55.6 55.28" style="enable-background:new 0 0 55.6 55.28;" xml:space="preserve">
<style type="text/css">
	.st0{clip-path:url(#SVGID_2_);fill:#89980F;}
	.st1{clip-path:url(#SVGID_2_);fill:#F2F4E6;}
</style>
<g>
	<defs>
		<rect id="SVGID_1_" x="-167.78" y="-799.23" width="1440" height="960"/>
	</defs>
	<clipPath id="SVGID_2_">
		<use xlink:href="#SVGID_1_"  style="overflow:visible;"/>
	</clipPath>
	<path class="st0" d="M27.74,55.42c15.19,0,27.5-12.31,27.5-27.5c0-15.19-12.31-27.5-27.5-27.5s-27.5,12.31-27.5,27.5
		C0.24,43.11,12.56,55.42,27.74,55.42"/>
	<path class="st1" d="M18.93,38.74c0.29,0,0.54-0.1,0.74-0.31c0.2-0.2,0.3-0.45,0.3-0.74c0-0.29-0.1-0.54-0.3-0.74
		c-0.2-0.2-0.45-0.31-0.74-0.31s-0.54,0.1-0.74,0.31c-0.2,0.2-0.31,0.45-0.31,0.74c0,0.29,0.1,0.54,0.31,0.74
		C18.4,38.64,18.64,38.74,18.93,38.74 M38.31,22.9c0.26,1.05,0.25,2.1-0.04,3.16c-0.29,1.06-0.83,2-1.61,2.82
		c-0.87,0.84-1.88,1.4-3.03,1.66c-1.15,0.26-2.29,0.2-3.43-0.17l-9.3,9.29c-0.55,0.55-1.21,0.83-1.98,0.83
		c-0.77,0-1.43-0.27-1.96-0.81c-0.54-0.54-0.81-1.19-0.81-1.96c0-0.77,0.28-1.43,0.83-1.99l9.29-9.34c-0.38-1.1-0.43-2.24-0.17-3.4
		c0.26-1.17,0.81-2.17,1.66-3.01c0.79-0.79,1.72-1.32,2.79-1.61c1.08-0.29,2.14-0.31,3.19-0.04c0.2,0.06,0.33,0.18,0.37,0.37
		c0.04,0.19-0.01,0.36-0.15,0.5l-3.23,3.27l0.48,2.97l2.97,0.48l3.27-3.23c0.15-0.14,0.31-0.19,0.5-0.15
		C38.13,22.57,38.25,22.7,38.31,22.9"/>
</g>
</svg>
