<?xml version="1.0" encoding="utf-8"?>
<!-- Generator: Adobe Illustrator 23.1.0, SVG Export Plug-In . SVG Version: 6.00 Build 0)  -->
<svg version="1.1" id="Layer_1" xmlns="http://www.w3.org/2000/svg" xmlns:xlink="http://www.w3.org/1999/xlink" x="0px" y="0px"
	 viewBox="0 0 54.84 54.97" style="enable-background:new 0 0 54.84 54.97;" xml:space="preserve">
<style type="text/css">
	.st0{clip-path:url(#SVGID_2_);fill:#89980F;}
	.st1{clip-path:url(#SVGID_2_);fill:#F2F4E6;}
</style>
<g>
	<defs>
		<rect id="SVGID_1_" x="-946.53" y="-800.39" width="1440" height="960"/>
	</defs>
	<clipPath id="SVGID_2_">
		<use xlink:href="#SVGID_1_"  style="overflow:visible;"/>
	</clipPath>
	<path class="st0" d="M27.5,54.99c15.19,0,27.5-12.31,27.5-27.5S42.69-0.01,27.5-0.01C12.31-0.01,0,12.3,0,27.49
		S12.31,54.99,27.5,54.99"/>
	<path class="st1" d="M37.54,28.89v-0.52L33.18,24h-1.92v4.89H37.54z M34.05,37.96c0.58,0,1.08-0.2,1.48-0.61
		c0.41-0.41,0.61-0.9,0.61-1.48c0-0.58-0.2-1.08-0.61-1.48c-0.41-0.41-0.9-0.61-1.48-0.61c-0.58,0-1.08,0.2-1.48,0.61
		c-0.41,0.41-0.61,0.9-0.61,1.48c0,0.58,0.2,1.08,0.61,1.48C32.98,37.76,33.47,37.96,34.05,37.96 M20.09,37.96
		c0.58,0,1.08-0.2,1.48-0.61c0.41-0.41,0.61-0.9,0.61-1.48c0-0.58-0.2-1.08-0.61-1.48c-0.41-0.41-0.9-0.61-1.48-0.61
		c-0.58,0-1.08,0.2-1.48,0.61c-0.41,0.41-0.61,0.9-0.61,1.48c0,0.58,0.2,1.08,0.61,1.48C19.01,37.76,19.5,37.96,20.09,37.96
		 M40.34,33.08c0.2,0,0.37,0.07,0.5,0.2c0.13,0.13,0.2,0.3,0.2,0.5v1.4c0,0.2-0.07,0.37-0.2,0.5c-0.13,0.13-0.3,0.2-0.5,0.2h-2.1
		c0,1.16-0.41,2.15-1.22,2.97c-0.82,0.81-1.8,1.22-2.97,1.22s-2.15-0.41-2.97-1.22c-0.82-0.81-1.22-1.8-1.22-2.97h-5.58
		c0,1.16-0.41,2.15-1.22,2.97c-0.82,0.81-1.8,1.22-2.97,1.22s-2.15-0.41-2.97-1.22c-0.82-0.81-1.22-1.8-1.22-2.97v-5.59h6.63
		c0.09,0,0.17-0.04,0.24-0.11c0.07-0.07,0.11-0.15,0.11-0.24v-0.7c0-0.09-0.04-0.17-0.11-0.24c-0.07-0.07-0.15-0.11-0.24-0.11h-9.08
		c-0.09,0-0.17-0.04-0.24-0.11c-0.07-0.07-0.11-0.15-0.11-0.24v-0.7c0-0.09,0.04-0.17,0.11-0.24c0.07-0.07,0.15-0.11,0.24-0.11
		h10.47c0.09,0,0.17-0.04,0.24-0.11c0.07-0.07,0.11-0.15,0.11-0.24v-0.7c0-0.09-0.04-0.17-0.11-0.24c-0.07-0.07-0.15-0.11-0.24-0.11
		h-9.08c-0.09,0-0.17-0.04-0.24-0.11c-0.07-0.07-0.11-0.15-0.11-0.24v-0.7c0-0.09,0.04-0.17,0.11-0.24
		c0.07-0.07,0.15-0.11,0.24-0.11h10.47c0.09,0,0.17-0.04,0.24-0.11c0.07-0.07,0.11-0.15,0.11-0.24v-0.7c0-0.09-0.04-0.17-0.11-0.24
		c-0.07-0.07-0.15-0.11-0.24-0.11H13.45c-0.09,0-0.17-0.04-0.24-0.11c-0.07-0.07-0.11-0.15-0.11-0.24v-0.7
		c0-0.09,0.04-0.17,0.11-0.24c0.07-0.07,0.15-0.11,0.24-0.11h2.44v-2.1c0-0.58,0.2-1.08,0.61-1.48c0.41-0.41,0.9-0.61,1.48-0.61
		h11.17c0.58,0,1.08,0.2,1.48,0.61c0.41,0.41,0.61,0.9,0.61,1.48v2.1h1.92c0.58,0,1.08,0.2,1.48,0.61l4.36,4.37
		c0.41,0.41,0.61,0.9,0.61,1.48v4.71H40.34z"/>
</g>
</svg>
