<?xml version="1.0" encoding="utf-8"?>
<!-- Generator: Adobe Illustrator 24.0.2, SVG Export Plug-In . SVG Version: 6.00 Build 0)  -->
<svg version="1.1" id="Layer_1" xmlns="http://www.w3.org/2000/svg" xmlns:xlink="http://www.w3.org/1999/xlink" x="0px" y="0px"
	 viewBox="0 0 105 105" style="enable-background:new 0 0 105 105;" xml:space="preserve">
<style type="text/css">
	.st0{fill:#89980F;}
	.st1{fill:#F2F4E6;}
</style>
<g>
	<path class="st0" d="M52.52,105c28.99-0.01,52.49-23.52,52.48-52.51C104.99,23.49,81.48-0.01,52.48,0
		C23.49,0.01-0.01,23.52,0,52.52C0.01,81.51,23.52,105.01,52.52,105"/>
</g>
<g>
	<path class="st1" d="M71.68,55.16v-1l-8.33-8.33l-3.67,0l0,9.33L71.68,55.16z M65.02,72.49c1.11,0,2.05-0.39,2.83-1.16
		c0.78-0.78,1.17-1.72,1.17-2.83c0-1.11-0.39-2.06-1.17-2.83c-0.78-0.78-1.72-1.17-2.83-1.17c-1.11,0-2.06,0.39-2.83,1.17
		c-0.78,0.78-1.17,1.72-1.17,2.83c0,1.11,0.39,2.06,1.17,2.83C62.96,72.1,63.9,72.49,65.02,72.49 M38.36,72.5
		c1.11,0,2.05-0.39,2.83-1.17c0.78-0.78,1.17-1.72,1.17-2.83c0-1.11-0.39-2.06-1.17-2.83c-0.78-0.78-1.72-1.17-2.83-1.17
		c-1.11,0-2.05,0.39-2.83,1.17c-0.78,0.78-1.17,1.72-1.17,2.83c0,1.11,0.39,2.06,1.17,2.83C36.3,72.11,37.24,72.5,38.36,72.5
		 M77.01,63.16c0.39,0,0.71,0.12,0.96,0.38c0.25,0.25,0.38,0.57,0.38,0.96v2.67c0,0.39-0.12,0.71-0.37,0.96
		c-0.25,0.25-0.57,0.38-0.96,0.38l-4,0c0,2.22-0.77,4.11-2.33,5.67c-1.56,1.56-3.44,2.33-5.67,2.33c-2.22,0-4.11-0.78-5.67-2.33
		c-1.56-1.56-2.33-3.44-2.34-5.66l-10.66,0c0,2.22-0.78,4.11-2.33,5.67c-1.55,1.56-3.44,2.33-5.67,2.33c-2.22,0-4.11-0.78-5.67-2.33
		c-1.55-1.56-2.33-3.44-2.33-5.67l0-10.66l12.66,0c0.17,0,0.32-0.07,0.46-0.21c0.14-0.14,0.21-0.29,0.21-0.46l0-1.33
		c0-0.17-0.07-0.32-0.21-0.46c-0.14-0.14-0.29-0.21-0.46-0.21l-17.33,0c-0.17,0-0.32-0.07-0.46-0.21c-0.14-0.14-0.21-0.29-0.21-0.46
		v-1.33c0-0.17,0.07-0.32,0.21-0.46c0.14-0.14,0.29-0.21,0.46-0.21l19.99-0.01c0.17,0,0.32-0.07,0.46-0.21
		c0.14-0.14,0.21-0.29,0.21-0.46V50.5c0-0.17-0.07-0.32-0.21-0.46c-0.14-0.14-0.29-0.21-0.46-0.21l-17.33,0
		c-0.17,0-0.32-0.07-0.46-0.21c-0.14-0.14-0.21-0.29-0.21-0.46l0-1.33c0-0.17,0.07-0.32,0.21-0.46c0.14-0.14,0.29-0.21,0.46-0.21
		l19.99-0.01c0.17,0,0.32-0.07,0.46-0.21c0.14-0.14,0.21-0.29,0.21-0.46l0-1.33c0-0.17-0.07-0.32-0.21-0.46
		c-0.14-0.14-0.29-0.21-0.46-0.21l-22.66,0.01c-0.17,0-0.32-0.07-0.46-0.21c-0.14-0.14-0.21-0.29-0.21-0.46v-1.33
		c0-0.17,0.07-0.32,0.21-0.46c0.14-0.14,0.29-0.21,0.46-0.21l4.67,0l0-4c0-1.11,0.39-2.05,1.16-2.83c0.78-0.78,1.72-1.17,2.83-1.17
		l21.33-0.01c1.11,0,2.06,0.39,2.83,1.17c0.78,0.78,1.17,1.72,1.17,2.83l0,4l3.67,0c1.11,0,2.05,0.39,2.83,1.17l8.33,8.33
		c0.78,0.78,1.17,1.72,1.17,2.83l0,9H77.01z"/>
</g>
</svg>
