<?xml version="1.0" encoding="utf-8"?>
<!-- Generator: Adobe Illustrator 23.1.0, SVG Export Plug-In . SVG Version: 6.00 Build 0)  -->
<svg version="1.1" id="Layer_1" xmlns="http://www.w3.org/2000/svg" xmlns:xlink="http://www.w3.org/1999/xlink" x="0px" y="0px"
	 viewBox="0 0 55.06 45" style="enable-background:new 0 0 55.06 45;" xml:space="preserve">
<style type="text/css">
	.st0{clip-path:url(#SVGID_2_);fill:#0066CB;}
</style>
<g>
	<defs>
		<rect id="SVGID_1_" x="-696.25" y="-3739" width="1440" height="4721"/>
	</defs>
	<clipPath id="SVGID_2_">
		<use xlink:href="#SVGID_1_"  style="overflow:visible;"/>
	</clipPath>
	<path class="st0" d="M48.81,12.64c0.01,15.03-11.42,32.34-32.33,32.35c-6.44,0-12.42-1.86-17.46-5.1c0.91,0.1,1.79,0.14,2.74,0.14
		c5.31,0,10.2-1.8,14.11-4.86c-4.99-0.1-9.18-3.37-10.63-7.88c0.7,0.1,1.41,0.17,2.15,0.17c1.02,0,2.04-0.14,2.99-0.39
		c-5.21-1.05-9.12-5.63-9.12-11.15v-0.14c1.51,0.84,3.27,1.37,5.14,1.44c-3.06-2.04-5.07-5.52-5.07-9.46c0-2.11,0.56-4.05,1.55-5.74
		c5.6,6.89,14.01,11.39,23.44,11.88c-0.18-0.84-0.28-1.72-0.28-2.6c0-6.26,5.06-11.37,11.36-11.37c3.27,0,6.23,1.37,8.3,3.59
		c2.57-0.49,5.03-1.45,7.21-2.75c-0.84,2.64-2.64,4.86-4.99,6.26c2.29-0.25,4.5-0.88,6.54-1.76c-1.55,2.25-3.48,4.26-5.7,5.88
		C48.81,11.65,48.81,12.15,48.81,12.64"/>
</g>
</svg>
