<?xml version="1.0" encoding="utf-8"?>
<!-- Generator: Adobe Illustrator 23.1.0, SVG Export Plug-In . SVG Version: 6.00 Build 0)  -->
<svg version="1.1" id="Layer_1" xmlns="http://www.w3.org/2000/svg" xmlns:xlink="http://www.w3.org/1999/xlink" x="0px" y="0px"
	 viewBox="0 0 50.33 11.54" style="enable-background:new 0 0 50.33 11.54;" xml:space="preserve">
<style type="text/css">
	.st0{clip-path:url(#SVGID_2_);fill:#CBCBCB;}
</style>
<g>
	<defs>
		<rect id="SVGID_1_" x="-447.86" y="-2896.55" width="1440" height="4721"/>
	</defs>
	<clipPath id="SVGID_2_">
		<use xlink:href="#SVGID_1_"  style="overflow:visible;"/>
	</clipPath>
	<path class="st0" d="M9.55,9.6c-1.01,1.01-2.43,1.6-3.86,1.6s-2.85-0.59-3.86-1.6c-1.01-1.01-1.6-2.43-1.6-3.86s0.59-2.85,1.6-3.86
		c1.01-1.01,2.43-1.6,3.86-1.6s2.85,0.59,3.86,1.6c1.01,1.01,1.6,2.43,1.6,3.86S10.56,8.59,9.55,9.6 M9.73,1.71
		C8.67,0.66,7.19,0.04,5.7,0.04c-1.49,0-2.97,0.61-4.03,1.67C0.61,2.77,0,4.25,0,5.74s0.61,2.97,1.67,4.03
		c1.05,1.05,2.54,1.67,4.03,1.67c1.49,0,2.97-0.61,4.03-1.67c1.05-1.05,1.67-2.54,1.67-4.03S10.78,2.77,9.73,1.71 M5.38,5.56v0.36
		L5.7,6.1l0.31-0.18V5.56L5.7,5.38L5.38,5.56z M5.97,4.69V3.92c0-0.07-0.03-0.14-0.08-0.19C5.84,3.68,5.77,3.65,5.7,3.65
		c-0.07,0-0.14,0.03-0.19,0.08C5.45,3.78,5.42,3.85,5.42,3.92v0.77L5.7,4.85L5.97,4.69z M3.99,6.41c-0.06,0.04-0.11,0.1-0.13,0.17
		C3.84,6.65,3.85,6.72,3.89,6.78c0.04,0.06,0.1,0.11,0.17,0.13C4.12,6.93,4.2,6.92,4.26,6.88L4.92,6.5V6.19L4.65,6.03L3.99,6.41z
		 M7.4,6.41L7.4,6.41L6.74,6.03L6.47,6.19V6.5l0.67,0.38C7.2,6.92,7.27,6.93,7.34,6.91c0.07-0.02,0.13-0.07,0.17-0.13
		c0.04-0.06,0.05-0.14,0.03-0.21C7.51,6.51,7.47,6.45,7.4,6.41 M9.63,8.07C9.62,8.08,9.6,8.08,9.58,8.08l-1.2-0.22
		C8.36,7.85,8.33,7.83,8.31,7.81C8.29,7.79,8.28,7.76,8.27,7.73c-0.01-0.09-0.04-0.17-0.1-0.23C8.13,7.43,8.05,7.38,7.97,7.35
		C7.88,7.33,7.79,7.34,7.71,7.36c-0.15,0.05-0.3,0.07-0.45,0.06c-0.15-0.01-0.3-0.06-0.44-0.14l-0.35-0.2V9.4h-0.5V6.79L5.7,6.63
		L5.42,6.79V9.4h-0.5V7.08l-0.35,0.2C4.44,7.36,4.29,7.41,4.13,7.42C3.98,7.43,3.82,7.41,3.68,7.36C3.6,7.34,3.51,7.33,3.43,7.35
		C3.34,7.38,3.27,7.43,3.21,7.49c-0.05,0.07-0.09,0.15-0.1,0.23c0,0.03-0.01,0.06-0.04,0.08C3.06,7.83,3.04,7.85,3.01,7.85
		l-1.2,0.22c-0.02,0-0.04,0-0.05-0.01C1.74,8.06,1.73,8.05,1.72,8.03C1.71,8.02,1.71,8,1.71,7.98c0-0.02,0.01-0.03,0.02-0.05
		l0.79-0.92C2.54,6.99,2.57,6.97,2.6,6.97c0.03-0.01,0.06,0,0.09,0.01c0.08,0.04,0.17,0.05,0.25,0.04C3.02,7,3.1,6.96,3.16,6.9
		c0.06-0.06,0.1-0.14,0.12-0.22c0.03-0.15,0.09-0.3,0.18-0.42c0.09-0.13,0.2-0.23,0.34-0.31l0.35-0.2L2.14,4.58l0.25-0.43l2.27,1.31
		L4.92,5.3V4.98L2.66,3.67l0.25-0.43L4.92,4.4V3.99c0-0.15,0.03-0.31,0.1-0.45C5.09,3.41,5.18,3.28,5.3,3.18
		c0.06-0.06,0.11-0.13,0.13-0.21c0.02-0.08,0.02-0.17-0.01-0.25s-0.08-0.15-0.16-0.2C5.24,2.5,5.22,2.47,5.21,2.44
		c-0.01-0.03-0.01-0.06,0-0.09l0.4-1.15c0.01-0.02,0.02-0.03,0.03-0.04C5.66,1.16,5.68,1.15,5.7,1.15c0.02,0,0.03,0.01,0.05,0.02
		c0.01,0.01,0.03,0.02,0.03,0.04l0.4,1.15c0.01,0.03,0.01,0.06,0,0.09C6.17,2.47,6.15,2.5,6.13,2.51C6.06,2.56,6,2.63,5.97,2.71
		S5.94,2.88,5.96,2.97c0.02,0.08,0.07,0.16,0.13,0.21c0.12,0.1,0.21,0.23,0.28,0.37c0.06,0.14,0.1,0.29,0.1,0.45V4.4l2.02-1.16
		l0.25,0.43L6.47,4.98V5.3l0.27,0.16l2.27-1.31l0.25,0.43L7.24,5.74l0.36,0.2c0.13,0.08,0.25,0.18,0.34,0.31
		c0.09,0.13,0.15,0.27,0.18,0.42C8.13,6.76,8.17,6.84,8.23,6.9C8.29,6.96,8.37,7,8.46,7.01c0.08,0.01,0.17,0,0.25-0.04
		c0.03-0.01,0.06-0.02,0.09-0.01c0.03,0.01,0.06,0.02,0.08,0.04l0.79,0.92c0.01,0.01,0.02,0.03,0.02,0.05c0,0.02,0,0.03-0.01,0.05
		C9.66,8.05,9.65,8.06,9.63,8.07 M9.12,2.32C8.22,1.42,6.96,0.9,5.7,0.9c-1.27,0-2.53,0.52-3.42,1.42c-0.9,0.9-1.42,2.16-1.42,3.42
		s0.52,2.53,1.42,3.42s2.15,1.42,3.42,1.42c1.27,0,2.52-0.52,3.42-1.42c0.9-0.9,1.42-2.15,1.42-3.42S10.01,3.22,9.12,2.32
		 M38.53,10.49h1.66V6.32h1.82v4.17h1.7V0.99h-1.7v3.64h-1.82V0.99h-1.66V10.49z M14.21,6.81v3.67h1.85V6.63l1.91-5.63h-1.55
		l-1.26,3.7l-1.14-3.7h-1.66L14.21,6.81z M24.08,10.49h1.49V3.33l1.27,6.22h1.39l1.13-6.32v7.26h1.75V0.99H28.4l-0.8,4.52
		l-0.92-4.52h-2.6V10.49z M46.64,6.7l0.71-4.25l0.69,4.25H46.64z M48.77,0.99H46.2l-1.74,9.49h1.54l0.37-2.21h1.91l0.36,2.21h1.69
		L48.77,0.99z M34.04,6.7l0.71-4.25l0.69,4.25H34.04z M36.17,0.99H33.6l-1.74,9.49h1.54l0.37-2.21h1.91l0.36,2.21h1.7L36.17,0.99z
		 M19.59,6.7l0.71-4.25l0.69,4.25H19.59z M21.73,0.99h-2.57l-1.74,9.49h1.54l0.37-2.21h1.91l0.36,2.21h1.69L21.73,0.99z"/>
</g>
</svg>
