<?xml version="1.0" encoding="utf-8"?>
<!-- Generator: Adobe Illustrator 23.1.0, SVG Export Plug-In . SVG Version: 6.00 Build 0)  -->
<svg version="1.1" id="Layer_1" xmlns="http://www.w3.org/2000/svg" xmlns:xlink="http://www.w3.org/1999/xlink" x="0px" y="0px"
	 viewBox="0 0 336.77 77.68" style="enable-background:new 0 0 336.77 77.68;" xml:space="preserve">
<style type="text/css">
	.st0{clip-path:url(#SVGID_2_);fill:#0066CC;}
</style>
<g>
	<defs>
		<rect id="SVGID_1_" x="-848.09" y="-3372.4" width="1440" height="4721"/>
	</defs>
	<clipPath id="SVGID_2_">
		<use xlink:href="#SVGID_1_"  style="overflow:visible;"/>
	</clipPath>
	<path class="st0" d="M63.9,64.29c-6.75,6.75-16.24,10.68-25.79,10.68s-19.04-3.93-25.79-10.68C5.55,57.54,1.62,48.05,1.62,38.5
		c0-9.55,3.93-19.04,10.68-25.79C19.06,5.95,28.55,2.02,38.1,2.02S57.14,5.95,63.9,12.71c6.75,6.75,10.68,16.24,10.68,25.79
		C74.58,48.05,70.65,57.54,63.9,64.29 M65.04,11.56C57.99,4.51,48.08,0.4,38.1,0.4S18.21,4.51,11.16,11.56
		C4.11,18.61,0,28.52,0,38.5c0,9.98,4.11,19.89,11.16,26.94C18.21,72.49,28.13,76.6,38.1,76.6s19.89-4.11,26.94-11.16
		C72.1,58.39,76.2,48.47,76.2,38.5C76.2,28.52,72.1,18.61,65.04,11.56 M36.01,37.29v2.42l2.09,1.21l2.09-1.21v-2.42l-2.09-1.21
		L36.01,37.29z M39.92,31.49v-5.14c0-0.48-0.2-0.95-0.53-1.29c-0.34-0.34-0.81-0.53-1.29-0.53s-0.95,0.2-1.29,0.53
		c-0.34,0.34-0.54,0.81-0.54,1.29v5.14l1.82,1.05L39.92,31.49z M26.67,43c-0.41,0.24-0.73,0.65-0.85,1.11
		c-0.12,0.46-0.06,0.97,0.18,1.38c0.24,0.41,0.64,0.73,1.1,0.85c0.46,0.12,0.97,0.06,1.38-0.18l4.45-2.57v-2.1l-1.82-1.05L26.67,43z
		 M49.53,43L49.53,43l-4.45-2.57l-1.82,1.05v2.1l4.45,2.57c0.41,0.24,0.92,0.3,1.38,0.18c0.46-0.12,0.87-0.44,1.1-0.85
		c0.24-0.41,0.31-0.92,0.18-1.38C50.26,43.64,49.94,43.23,49.53,43 M64.42,54.07c-0.1,0.05-0.23,0.06-0.34,0.04l-8-1.5
		c-0.2-0.04-0.38-0.14-0.51-0.29c-0.13-0.15-0.22-0.34-0.23-0.54c-0.04-0.57-0.27-1.13-0.63-1.57c-0.36-0.44-0.87-0.77-1.42-0.92
		c-0.55-0.15-1.15-0.13-1.69,0.06c-0.97,0.34-2.02,0.47-3.04,0.38c-1.02-0.09-2.03-0.41-2.92-0.93l-2.37-1.37v15.57h-3.34v-17.5
		l-1.82-1.05l-1.82,1.05v17.5h-3.34V47.44l-2.37,1.37c-0.89,0.51-1.9,0.83-2.92,0.93c-1.03,0.1-2.07-0.03-3.04-0.38
		c-0.54-0.19-1.14-0.21-1.69-0.06c-0.55,0.15-1.06,0.48-1.42,0.92c-0.36,0.44-0.59,1-0.64,1.57c-0.02,0.2-0.1,0.39-0.23,0.54
		c-0.13,0.15-0.32,0.25-0.51,0.29l-8,1.5c-0.11,0.02-0.23,0.01-0.34-0.04c-0.11-0.05-0.2-0.13-0.25-0.23
		c-0.06-0.1-0.09-0.22-0.07-0.34c0.01-0.11,0.06-0.23,0.13-0.31l5.3-6.18c0.13-0.15,0.31-0.26,0.5-0.3c0.19-0.04,0.4-0.02,0.58,0.07
		c0.52,0.25,1.11,0.33,1.68,0.24c0.57-0.1,1.1-0.37,1.51-0.77c0.41-0.4,0.69-0.93,0.8-1.49c0.19-1.01,0.6-1.98,1.2-2.82
		c0.59-0.84,1.37-1.55,2.26-2.06l2.37-1.37L14.3,30.71l1.67-2.89l15.15,8.75l1.82-1.05v-2.1l-15.15-8.75l1.67-2.89l13.49,7.79v-2.74
		c0-1.03,0.22-2.06,0.65-2.99c0.43-0.94,1.07-1.77,1.85-2.45c0.43-0.37,0.75-0.88,0.9-1.44c0.14-0.56,0.11-1.16-0.09-1.69
		c-0.2-0.54-0.57-1.01-1.04-1.33c-0.16-0.11-0.29-0.28-0.35-0.47c-0.06-0.19-0.06-0.4,0.01-0.59l2.71-7.68
		c0.04-0.11,0.11-0.2,0.21-0.27c0.09-0.06,0.21-0.1,0.33-0.1c0.12,0,0.23,0.04,0.33,0.1c0.09,0.07,0.17,0.16,0.21,0.27l2.71,7.68
		c0.07,0.19,0.07,0.4,0.01,0.59c-0.06,0.19-0.19,0.36-0.35,0.47c-0.47,0.32-0.84,0.8-1.04,1.33c-0.2,0.54-0.23,1.14-0.09,1.69
		c0.14,0.55,0.46,1.06,0.9,1.44c0.78,0.67,1.42,1.51,1.85,2.45c0.43,0.94,0.65,1.96,0.65,2.99v2.74l13.48-7.79l1.67,2.89
		l-15.15,8.75v2.1l1.82,1.05l15.15-8.75l1.67,2.89L48.42,38.5l2.37,1.37c0.89,0.51,1.67,1.22,2.26,2.06c0.6,0.84,1.01,1.81,1.2,2.82
		c0.11,0.56,0.39,1.09,0.8,1.49c0.41,0.4,0.94,0.67,1.51,0.77c0.57,0.09,1.16,0.01,1.68-0.24c0.18-0.08,0.39-0.11,0.58-0.07
		c0.19,0.04,0.38,0.15,0.5,0.3l5.3,6.18c0.08,0.09,0.12,0.2,0.13,0.31c0.01,0.12-0.02,0.23-0.07,0.34
		C64.62,53.94,64.53,54.03,64.42,54.07 M60.98,15.61C54.99,9.62,46.57,6.14,38.1,6.14s-16.89,3.49-22.88,9.48
		C9.23,21.61,5.74,30.03,5.74,38.5c0,8.47,3.49,16.89,9.48,22.89c5.99,5.99,14.41,9.48,22.88,9.48s16.89-3.49,22.88-9.48
		c5.99-5.99,9.48-14.41,9.48-22.89C70.46,30.03,66.98,21.61,60.98,15.61 M257.68,70.25h11.12V42.37h12.17v27.88h11.37V6.75h-11.37
		v24.34H268.8V6.75h-11.12V70.25z M95.04,45.69v24.56h12.35V44.42l12.8-37.68h-10.4l-8.4,24.74l-7.6-24.74H82.7L95.04,45.69z
		 M161.09,70.25h9.96V22.38l8.5,41.61h9.3l7.54-42.29v48.54h11.67V6.75h-18.09l-5.33,30.21l-6.18-30.21h-17.36V70.25z M311.94,44.89
		l4.73-28.4l4.59,28.4H311.94z M326.22,6.75h-17.19l-11.61,63.5h10.29l2.46-14.77h12.8l2.39,14.77h11.33L326.22,6.75z M227.65,44.89
		l4.73-28.4l4.59,28.4H227.65z M241.93,6.75h-17.19l-11.61,63.5h10.29l2.46-14.77h12.8l2.39,14.77h11.34L241.93,6.75z M131.06,44.89
		l4.73-28.4l4.59,28.4H131.06z M145.34,6.75h-17.2l-11.61,63.5h10.29l2.46-14.77h12.8l2.39,14.77h11.34L145.34,6.75z"/>
</g>
</svg>
